<svg xmlns="http://www.w3.org/2000/svg" viewBox="0 0 180.19 132.25"><defs><style>.cls-1{opacity:0.53;}.cls-2,.cls-3{fill:#fff;}.cls-3,.cls-6{opacity:0.55;}.cls-4{opacity:0.31;}.cls-5,.cls-6{fill:#467e4f;}</style></defs><title>Asset 1</title><g id="Layer_2" data-name="Layer 2"><g id="Texture"><g class="cls-1"><g class="cls-1"><path class="cls-2" d="M178,116l.1.09C178.32,116,177.68,114.9,178,116Z"/><path class="cls-2" d="M148.61,114.36l-.28-.26a1.64,1.64,0,0,0-.18.51l.28.16a1.2,1.2,0,0,0,.16-.16C148.6,114.51,148.61,114.43,148.61,114.36Z"/><path class="cls-2" d="M115.56,122.83a2.79,2.79,0,0,0,.43.59.58.58,0,0,0,.43.11C116.44,122.72,116,122.48,115.56,122.83Z"/><path class="cls-3" d="M114.61,46.85c1.07.13,0-.69,0,0Z"/><path class="cls-2" d="M123.05,54.43c-1.06,0-.75,1.47,0,0Z"/><path class="cls-3" d="M168.22,48c0-.69-.61-.45,0,0Z"/><path class="cls-2" d="M159.94,44c-2.1,0-.52,2,0,0Z"/><path class="cls-2" d="M137.9,30.49c.27,2.2.47-.31,0,0Z"/><path class="cls-3" d="M152.28,35.05c-.08-.32,1-.41.47-.66C152.7,34.62,151.7,34.74,152.28,35.05Z"/><path class="cls-3" d="M117.74,36.17c-1.53,0,.05.12,0,0Z"/><path class="cls-2" d="M140.4,40.51c1.95,1.92.59,0,0,0Z"/><path class="cls-2" d="M120.08,52.42c.45-.1,1.76-1.4,0,0Z"/><path class="cls-2" d="M141.34,51.31Z"/><path class="cls-3" d="M178.38,52.09c.26,1.35.38.23,0,0Z"/><path class="cls-3" d="M137.9,54.87c1.17,0,.19-.12,0,0Z"/><path class="cls-2" d="M163.06,57.32c2.4-1.49-1.67-.35,0,0Z"/><path class="cls-2" d="M170.72,60.1c-1.13,0,.15,1,0,0Z"/><path class="cls-2" d="M119.45,61.44c0,.44,2.27,0,0,0Z"/><path class="cls-3" d="M132.74,65.45c.09-.55-1.69,0,0,0Z"/><path class="cls-3" d="M131.8,66.45c-.17,0,.6-.08,0,0Z"/><path class="cls-3" d="M136.92,68.9c-.07.16-.23.27-.33.13a5.66,5.66,0,0,0-.41.42C136.19,70.78,137.08,69.16,136.92,68.9Z"/><path class="cls-3" d="M132.27,70.23c1.78-1.3-2.75.21,0,0Z"/><path class="cls-2" d="M138.49,70.83a.7.7,0,0,1-.27-.59h0C133.74,70.05,137.65,71.09,138.49,70.83Z"/><path class="cls-3" d="M165.41,71.24c2.24.64.49,0,0,0Z"/><path class="cls-3" d="M132.74,89.27c.19,0,1.28-1.34,0,0Z"/><path class="cls-3" d="M127.9,87.71c-.47,0-1.71.69,0,0Z"/><path class="cls-3" d="M155.25,90.16c0,.27.37.09,0,0Z"/><path class="cls-3" d="M126.49,73.8c-1.3.35-.36.68,0,0Z"/><path class="cls-3" d="M117.89,75.36c.31,1,.88-.56,0,0Z"/><path class="cls-3" d="M141.81,76.36c0,1.86,2-1,0,0Z"/><path class="cls-2" d="M141.18,78.14Z"/><path class="cls-3" d="M136.8,78.7c-3.33-.09-.37,0,0,0Z"/><path class="cls-3" d="M125.71,81c-.24-3-.19,0,0,0Z"/><path class="cls-3" d="M166,81.83c-.19.14-.11,1,0,.37A1.59,1.59,0,0,1,166,81.83Z"/><path class="cls-3" d="M176.19,83.59c-.34-1.54,0,.19,0,0Z"/><path class="cls-2" d="M136.18,84.82s-1.31-.25,0,0Z"/><path class="cls-2" d="M115.7,85.6c-5.34,1.24,1.45-.07,0,0Z"/><path class="cls-3" d="M133.05,87.27c2.13,0,0-2.67,0,0Z"/><path class="cls-3" d="M158.37,88.16c.33-.13-.25-.55-.31-.78C157.77,87.93,158.13,87.79,158.37,88.16Z"/><path class="cls-3" d="M157,88.62c-1.69-.2-.22.57,0,0Z"/><path class="cls-3" d="M114.3,89.27c0-1.54-1,.35,0,0Z"/><path class="cls-3" d="M147.43,91.72c-.08-.21,0,.06,0,0Z"/><path class="cls-3" d="M164.47,103.86c3.49,0,0-.08,0,0Z"/><path class="cls-3" d="M142.12,94.62c0,1.45.23-1.13,0,0Z"/><path class="cls-3" d="M112,94.62c0,2.56,1,0,0,0Z"/><path class="cls-2" d="M143.37,96.4c-2-1.36,1.84,1.59,0,0Z"/><path class="cls-2" d="M111.64,97.18s.21-1.1,0,0Z"/><path class="cls-2" d="M122.89,99.29c0,.24-.71.95,0,1C122.74,99.89,124.07,99.38,122.89,99.29Z"/><path class="cls-3" d="M117.11,102c0,.67.87-.21,0,0Z"/><path class="cls-3" d="M126.65,105.3c.15-1.26-1.67-.27,0,0Z"/><path class="cls-3" d="M147.43,106c1.62.42.68-.76,0,0Z"/><path class="cls-3" d="M166.5,111.32c.08.6,1.48.06,0,0Z"/><path class="cls-2" d="M165.25,114.43c1.78-.9.6-1.62,0,0Z"/><path class="cls-2" d="M112.11,114.43c-.94,0,2.11,1.85,0,0Z"/><path class="cls-2" d="M167.75,117.44c-3.6-1,.21.57,0,0Z"/><path class="cls-3" d="M117.11,115c-.41-1.09-1.25-.1,0,0Z"/><path class="cls-2" d="M178.07,116.1a.06.06,0,0,0,.06,0L178,116A1,1,0,0,1,178.07,116.1Z"/><path class="cls-2" d="M177.76,115.43a1.37,1.37,0,0,0,.27.57c-.35-1.1.29,0,.1.09C178.62,116.45,179.08,115.47,177.76,115.43Z"/><path class="cls-3" d="M122.89,115.55c-.24.58,1.86.17,0,0Z"/><path class="cls-3" d="M177.91,116.55c-2.88,0-.31,2.26,0,0Z"/><path class="cls-2" d="M130.08,119.22c-3.78.14,0,1.14,0,0Z"/><path class="cls-3" d="M177.44,120.56c.9.76,2-.55,0,0Z"/><path class="cls-3" d="M124.61,121.45c0,.36,3.21.34,0,0Z"/><path class="cls-2" d="M127,122.78c.11.61,1.33,0,0,0Z"/><path class="cls-3" d="M112.73,124.23c.19-1.59-.25,0,0,0Z"/><path class="cls-2" d="M171,127.68c0,1,.79,0,0,0Z"/><path class="cls-3" d="M156.66,128.79c-.12.26,1.88-1.51,0,0Z"/><path class="cls-3" d="M164.16,128.24c.47,1.22,1.64,0,0,0Z"/><path class="cls-3" d="M149.31,129.8c-2.2,0,.7,1.79,0,0Z"/><path class="cls-3" d="M127.9,32.6c1,.12,1.26-1.24,0,0Z"/><path class="cls-3" d="M151,39a.49.49,0,0,0-.94.11A.57.57,0,0,0,151,39Z"/><path class="cls-2" d="M124.3,46.85c0-.22.43-.14.31-.44C124.08,46.22,123.64,46.89,124.3,46.85Z"/><path class="cls-2" d="M119.3,54.09c-.53-.86.1,1.27,0,0Z"/><path class="cls-3" d="M147.28,60.44c.34,0,0-.95,0,0Z"/><path class="cls-3" d="M136,60.66c.07.81,0-.44,0,0Z"/><path class="cls-3" d="M174.63,63.55c-.4-.69,0,2,0,0Z"/><path class="cls-2" d="M139.62,67.12c-2.71.26,4.18.28,0,0Z"/><path class="cls-3" d="M132.12,67.45c0,.43,2.22-.34,0,0Z"/><path class="cls-3" d="M138.49,70.83c.6.33,1.78-1-.28-.71,0,0,0,.08,0,.12C138.72,70.58,138.73,70.75,138.49,70.83Z"/><path class="cls-2" d="M138.49,70.83c.24-.08.23-.25-.27-.59A.7.7,0,0,0,138.49,70.83Z"/><path class="cls-3" d="M138.49,70.83c.24-.08.23-.25-.27-.59A.7.7,0,0,0,138.49,70.83Z"/><path class="cls-3" d="M172,70.57c.05-.18-1.67-.14,0,0Z"/><path class="cls-3" d="M141.49,75.91c2-.64-.19-.28,0,0Z"/><path class="cls-3" d="M121.64,78.25c.16,0,0-1.43,0,0Z"/><path class="cls-3" d="M114.61,79.7c0-.47-2.69.41,0,0Z"/><path class="cls-2" d="M124.85,82.85a.89.89,0,0,1-.09.31C125,83.4,125.3,83,124.85,82.85Z"/><path class="cls-2" d="M116.64,83.93c.44,0-.5,0,0,0Z"/><path class="cls-3" d="M138.37,88.05c1.9.23-.67-1.67,0,0Z"/><path class="cls-3" d="M122.43,89.38c-.36.41.79.15,0,0Z"/><path class="cls-2" d="M143.06,94.84c-.83,2.54,1.33-1,0,0Z"/><path class="cls-2" d="M144.62,95.51c.23,0,.14-.27.16-.45C144.2,94.82,144.07,95.63,144.62,95.51Z"/><path class="cls-2" d="M126.18,98.4c1.63-.91-2-.55,0,0Z"/><path class="cls-3" d="M164.94,101.52c0-.64,0-.94,0,0Z"/><path class="cls-3" d="M130.55,108.31c-.81.19.79-.13,0,0Z"/><path class="cls-3" d="M110.39,109.09c-1.07,0-.24,1.17,0,0Z"/><path class="cls-2" d="M129.15,109.42c-2.06.76-.11.23,0,0Z"/><path class="cls-3" d="M149.15,127.35c.38-1-2.22-.27,0,0Z"/><path class="cls-2" d="M136.33,129.24c-.09,0-.59-.28-.62,0C135.47,129.57,136.58,129.57,136.33,129.24Z"/><path class="cls-2" d="M83.78,23.81c.19,1.5.14.43,0,0Z"/><path class="cls-3" d="M70.49,67.12c.16.4,2.35.12,0,0Z"/><path class="cls-3" d="M72.37,61.11c2.57.51,0-.38,0,0Z"/><path class="cls-3" d="M85,64.11c1.49.32-1.2-1.46,0,0Z"/><path class="cls-2" d="M66.9,88.6c2,1.15,0-1.54,0,0Z"/><path class="cls-2" d="M57.21,86.6c.94-.09.5-.66,1.09-1.11C57.79,85.75,57.25,86,57.21,86.6Z"/><path class="cls-3" d="M33.29,84.82c0,.37,1.89.29,0,0Z"/><path class="cls-3" d="M45.48,65.78c.26-.16.32-1,0,0Z"/><path class="cls-2" d="M36,65.78c2.07,1.52-.24-2.45,0,0Z"/><path class="cls-2" d="M24.54,69.12c.83.17-.56-1.49,0,0Z"/><path class="cls-3" d="M14.22,57.65c.75,0-2.27-.07,0,0Z"/><path class="cls-2" d="M23.29,23.48c-.54.08.11,1.5,0,0Z"/><path class="cls-2" d="M13.13,33.72c-.29.66,2.18-.2,0,0Z"/><path class="cls-3" d="M101.44,8.45v.67C102.3,9.09,101.62,8.66,101.44,8.45Z"/><path class="cls-2" d="M43.92,3.77c.21-2-1.33,0,0,0Z"/><path class="cls-2" d="M74.71,4.55c.08-.37-.37-.77,0,0Z"/><path class="cls-3" d="M67.68,15.35c1.92,0,1.51-1,0,0Z"/><path class="cls-3" d="M105.19,12.9c0,1.33,1.61,0,0,0Z"/><path class="cls-3" d="M112.07,11.9c-.73,0,0,1.35,0,0Z"/><path class="cls-3" d="M26.73,9.34c-1.33,0,.55,0,0,0Z"/><path class="cls-3" d="M74.4,10.45c1.49-.08,1.44-.49,0,0Z"/><path class="cls-3" d="M71.27,11.23c.41,0,.68,0,.63-.33C71.49,10.86,71.22,10.94,71.27,11.23Z"/><path class="cls-2" d="M4.69,14.79c1.51-.4,0-1.93,0,0Z"/><path class="cls-3" d="M72.21,18.13c-.87,0-1,.9,0,0Z"/><path class="cls-3" d="M27,23.7c-3.21-.9.66,1.75,0,0Z"/><path class="cls-3" d="M82.53,26.82c.4.05.88-.4.47-.56C83,26.52,82.45,26.47,82.53,26.82Z"/><path class="cls-3" d="M3.59,36.28c0,.29,1.22-3,0,0Z"/><path class="cls-3" d="M13.44,37.06c2.32.53.13-.71,0,0Z"/><path class="cls-2" d="M28.76,39c-.59.07-1.54.53,0,0Z"/><path class="cls-3" d="M40.79,39c0,.16.89,0,0,0Z"/><path class="cls-2" d="M0,41.4c2,1.46,0-1.93,0,0Z"/><path class="cls-2" d="M38,43.85c0-1-.06,0,0,0Z"/><path class="cls-3" d="M36.41,44.41c.13.6,1.89,1.36,0,0Z"/><path class="cls-3" d="M83.78,45.18c-1.48.13,1.45,0,0,0Z"/><path class="cls-2" d="M80,51c.22-1.55-.67-.28,0,0Z"/><path class="cls-3" d="M80.34,51.31c-.64.31-.32,2.12,0,0Z"/><path class="cls-3" d="M63.62,54c1-2.8-.29.05,0,0Z"/><path class="cls-3" d="M67.68,58.88c.16,0,1.56-2.4,0,0Z"/><path class="cls-3" d="M91.59,122.78c-2.7-1.82.6,2.52,0,0Z"/><path class="cls-2" d="M78.15,128.68c0-.17-.31,0,0,0Z"/><path class="cls-2" d="M92.37,61.33c-1.15-.43,0,.12,0,0Z"/><path class="cls-2" d="M110.19,60.55c-1.13-.1-.19,1.38,0,0Z"/><path class="cls-3" d="M9.06,62.55s-.32.88,0,0Z"/><path class="cls-3" d="M20.47,62.89c-2.3.85,1.3,0,0,0Z"/><path class="cls-3" d="M71.27,65.11c-2.23,0-1,2,0,0Z"/><path class="cls-3" d="M88.31,66.12c0-.3-.22-.37-.63-.34C87.64,66.07,87.9,66.15,88.31,66.12Z"/><path class="cls-3" d="M87.22,66.56c1.18.08,0-.53,0,0Z"/><path class="cls-3" d="M60.33,68.12c2.29-.44.58-.35,0,0Z"/><path class="cls-3" d="M42.36,68.57c2.66-.23-1.65-.29,0,0Z"/><path class="cls-3" d="M108,69.45c-2.14,1,0,.69,0,0Z"/><path class="cls-3" d="M91.75,69.68c-.16,2,.45-1.16,0,0Z"/><path class="cls-3" d="M13.13,72.68c.51,0,.47-1.12,0,0Z"/><path class="cls-3" d="M65.65,70.68c1.63,0,.53-.62,0,0Z"/><path class="cls-3" d="M5.31,72.68c-.59-1.05-1.66,2.19,0,0Z"/><path class="cls-2" d="M56,74.69c0,.07,1.19.06,0,0Z"/><path class="cls-3" d="M116,75.24c-.14,0-.28.28,0,0Z"/><path class="cls-3" d="M71.74,75.8c1.53.17-.75-2.39,0,0Z"/><path class="cls-2" d="M37.82,76c-.09,1,.64-.07,0,0Z"/><path class="cls-2" d="M108.47,79c-.56,0,.37.88,0,0Z"/><path class="cls-2" d="M32.82,83.15c1.25-.11,1.09-.36,0,0Z"/><path class="cls-2" d="M31,83.26c1.3-.94-2.05.67,0,0Z"/><path class="cls-2" d="M57.21,83.48c1.18-.92-1.84-.48,0,0Z"/><path class="cls-3" d="M98.94,84.26c-1.47,1.89,1.49.23,0,0Z"/><path class="cls-2" d="M19.69,86.38c-1.46,1.09,1.66-.56,0,0Z"/><path class="cls-3" d="M13.91,86.71c1.79.1-.06-.12,0,0Z"/><path class="cls-3" d="M87.84,88.83c-.55-1.69-.4-.52,0,0Z"/><path class="cls-3" d="M2.34,129.24c1.35,0,0-1.47,0,0Z"/><path class="cls-2" d="M10.94,110.87c0,1.13,1.8-.18,0,0Z"/><path class="cls-3" d="M31.26,88.71c0,1.25.21-1,0,0Z"/><path class="cls-3" d="M58.93,89.27c-.51,1.35.86-.18,0,0Z"/><path class="cls-2" d="M92.84,94.84c0,2.31.76-1.86,0,0Z"/><path class="cls-3" d="M47.05,95.62c-2,.65,2.91,0,0,0Z"/><path class="cls-3" d="M25.63,98.29c-1.64-.74-.74.18,0,0Z"/><path class="cls-3" d="M95.34,100.07c0,1.93.15-2.31,0,0Z"/><path class="cls-3" d="M38.45,101.18c0,.51,1.38.13,0,0Z"/><path class="cls-3" d="M61.43,101.41c.09,1.3,1-.56,0,0Z"/><path class="cls-3" d="M92.22,101.63c.15,1.23,1.27,0,0,0Z"/><path class="cls-3" d="M15.47,102.19c3.91-.18-3.16,0,0,0Z"/><path class="cls-3" d="M74.71,103.19c-.52-.11-.51.15-.47.44C74.76,103.75,74.76,103.48,74.71,103.19Z"/><path class="cls-3" d="M50.79,114.88c-.1.54,1.85-1,0,0Z"/><path class="cls-3" d="M87.37,109.76c0,.11,1.47.13,0,0Z"/><path class="cls-3" d="M33.29,111c0,.2.16.26.47.22C34.31,111.12,33.3,110.67,33.29,111Z"/><path class="cls-2" d="M41.89,111.54c-.4,3.64.92.14,0,0Z"/><path class="cls-3" d="M35.64,112.43c2.37-.31-.37-.85,0,0Z"/><path class="cls-3" d="M91.12,113.54c-.75,0-.34.08.18.11a.38.38,0,0,1,.22-.07Z"/><path class="cls-3" d="M91.7,113.67c.52,0,.86,0-.17-.09A.18.18,0,0,1,91.7,113.67Z"/><path class="cls-3" d="M9.29,116.55l-.12,0c0,.2.09.52.2,1C9.54,117.57,9.41,116.94,9.29,116.55Z"/><path class="cls-3" d="M49.7,118.44c.12,0,.75-1.21,0,0Z"/><path class="cls-3" d="M81.28,119.44c2.78.62.06-1.46,0,0Z"/><path class="cls-2" d="M19.54,120.89c0,.07,2.05.22,0,0Z"/><path class="cls-3" d="M60.64,123.12c1.73-.2-1-4,0,0Z"/><path class="cls-2" d="M11.41,124.9c1.14.26,1.16-.45,0,0Z"/><path class="cls-3" d="M105.81,125.68c1.53.18.08-1.25,0,0Z"/><path class="cls-3" d="M58.46,126.34c0,.08,2.56.63,0,0Z"/><path class="cls-3" d="M62.36,129.69c-.08,0,.08,1,0,0Z"/><path class="cls-3" d="M31.88,130.58c0,.07,1.25,2.29,0,0Z"/><path class="cls-3" d="M33.76,129.8c2-1.34-.39-1,0,0Z"/><path class="cls-2" d="M4.22,129.24c1.24.14.08-1,0,0Z"/><path class="cls-3" d="M23.29,130.8c1.81,0-.62,0,0,0Z"/><path class="cls-2" d="M46.58,3c-.72.16,1.71.07,0,0Z"/><path class="cls-2" d="M67.05,11.12c.25,1.18.73-2,0,0Z"/><path class="cls-3" d="M88.78,16c0-2.39-.13,2.42,0,0Z"/><path class="cls-3" d="M5.94,34.72c1.38,0,0-1.42,0,0Z"/><path class="cls-3" d="M49.55,57.43c.18-.93-.9,0,0,0Z"/><path class="cls-2" d="M84.72,72.35h-.47C84.08,72.85,85.31,72.72,84.72,72.35Z"/><path class="cls-2" d="M5.47,73.69c0-.43-1.74.25,0,0Z"/><path class="cls-2" d="M64.08,76.25c-.06-.22,0-.48-.46-.45C63.17,76.11,63.8,76.14,64.08,76.25Z"/><path class="cls-3" d="M6.72,76.36c0,.27,3.41-1.21,0,0Z"/><path class="cls-3" d="M33.29,79.59c.89,0,0-.15,0,0Z"/><path class="cls-2" d="M14.85,81.81c.67-.1.78-.19,0,0Z"/><path class="cls-3" d="M33,85.6c-.28.77-.73,3.12,0,0Z"/><path class="cls-3" d="M118.32,85.93c-1.41.27-1.66.72,0,0Z"/><path class="cls-2" d="M53.3,86.82c0,.86.92,0,0,0Z"/><path class="cls-3" d="M29.7,89.83c-.6-1.3-.22,0,0,0Z"/><path class="cls-3" d="M113.63,91.94c-.46,1.14,0,0,0,0Z"/><path class="cls-2" d="M26.1,97.51c-.1.49.35,0,0,0Z"/><path class="cls-2" d="M88.15,99.74c1.88,0-.42-.81,0,0Z"/><path class="cls-3" d="M51,103.86c.13,1.72,0-1.43,0,0Z"/><path class="cls-3" d="M65.65,104.08c.53,0,2.15-.27,0,0Z"/><path class="cls-3" d="M27,106.64c.55,0,.18-.81,0,0Z"/><path class="cls-3" d="M99.72,111.43c-2-.89-.74,0,0,0Z"/><path class="cls-3" d="M20.79,111.87c.4.82.29.57,0,0Z"/><path class="cls-3" d="M44.39,118.22c.22.78.29,0,0,0Z"/><path class="cls-3" d="M39.39,121.89c1.3.34.07-.25,0,0Z"/><path class="cls-2" d="M7.19,122.34c-.79,0-.55.59,0,0Z"/><path class="cls-3" d="M84.56,126.57c-.24,1.06,3.13-2.27,0,0Z"/><path class="cls-3" d="M53.77,127.23c0-.31-1,.1,0,0Z"/><path class="cls-3" d="M58.93,128c.63,2-.44-2,0,0Z"/><path class="cls-3" d="M134.27,123.37c-1.1,1.49.19,0,0,0Z"/><path class="cls-2" d="M171.37,112.1c0-.95-1.9,2.08,0,0Z"/><path class="cls-3" d="M170.79,117.11c1.18-.42.1-1.23,0,0Z"/><path class="cls-3" d="M170.2,122.9c-.62-.25-.18,1.85,0,0Z"/><path class="cls-2" d="M166.33,130.1c-.15-3.79-1.22,0,0,0Z"/><path class="cls-3" d="M164,124.62c-.38,0-.36,3.21,0,0Z"/><path class="cls-2" d="M162.57,127c-.64.12,0,1.32,0,0Z"/><path class="cls-3" d="M161,112.73c1.68.19,0-.24,0,0Z"/><path class="cls-3" d="M151.88,116.64c-.82,0,.47,2.63,0,0Z"/><path class="cls-2" d="M149.65,115.86a.76.76,0,0,0-.17-.5c.88.51,1.21.69.05-.28a4.41,4.41,0,0,1-.92-.72c0,.07,0,.15,0,.25a1.2,1.2,0,0,1-.16.16l.87.49a.42.42,0,0,0-.12,0C149.2,115.63,149.35,115.84,149.65,115.86Z"/><path class="cls-2" d="M148.33,114.1l.28.26C148.63,113.74,148.47,113.83,148.33,114.1Z"/><path class="cls-2" d="M148.43,114.77l-.28-.16C148.1,114.86,148.16,115,148.43,114.77Z"/><path class="cls-2" d="M145.31,113.51a8.08,8.08,0,0,1,2.84,1.1,1.64,1.64,0,0,1,.18-.51C147.1,113,145.51,111.55,145.31,113.51Z"/><path class="cls-3" d="M133.92,122c.11-1.87-.25,1.4,0,0Z"/><path class="cls-2" d="M127.11,131.35c-.06,0,.18,1.66,0,0Z"/><path class="cls-3" d="M124.41,118.68c0,1.81.17-2.08,0,0Z"/><path class="cls-2" d="M115.56,122.83c.4-.35.88-.11.86.7a.58.58,0,0,1-.43-.11c.38.38.78.49.67-.52C115.34,121.85,115.27,122.28,115.56,122.83Z"/><path class="cls-2" d="M115.49,122.9c.2.13.31.37.5.52a2.79,2.79,0,0,1-.43-.59S115.51,122.87,115.49,122.9Z"/><path class="cls-2" d="M115.49,114.61c-3.16-.93-.39,1.37,0,0Z"/><path class="cls-3" d="M45.5,111c-.83,1.14,0,.65,0,0Z"/><path class="cls-3" d="M109.5,125.25c-.23-1-.22,1.72,0,0Z"/><path class="cls-3" d="M109.38,124.15c.69-.09.28-.16,0,0Z"/><path class="cls-2" d="M78.38,117.74c-.45-.64,0,2.36,0,0Z"/><path class="cls-3" d="M99.4,113.35c-.21,1.23,1.75-1.48,0,0Z"/><path class="cls-3" d="M95.05,115.7c0,2.27,1.76-1.48,0,0Z"/><path class="cls-3" d="M94.11,115.7c1.08.9,0-1.49,0,0Z"/><path class="cls-3" d="M86.25,120.08c-1.55.49-.13,4,0,0Z"/><path class="cls-2" d="M73.92,110.69c0,1.69,1.39.46,0,0Z"/><path class="cls-3" d="M65.93,130.26c0-1.19-.16-.3,0,0Z"/><path class="cls-3" d="M65.46,121c-3.26,0,4.54,1.59,0,0Z"/><path class="cls-2" d="M64.41,120.24c-.5.2-.08.11,0,0Z"/><path class="cls-3" d="M63,125.25c-.2.55.78.07,0,0Z"/><path class="cls-3" d="M54.31,113.67c1.89,0-1-1.83,0,0Z"/><path class="cls-3" d="M53.49,124.62c-.18,0,1.41,1.95,0,0Z"/><path class="cls-3" d="M50,113.35c0,1.46.28-2.59,0,0Z"/><path class="cls-3" d="M46.44,124.31c-.18,0,.07,1.32,0,0Z"/><path class="cls-3" d="M46.09,118.36c-.13.56-.58-.55-.7,0C45.4,118.7,46.5,118.87,46.09,118.36Z"/><path class="cls-3" d="M44.68,114.61c0-.57-1.24-.12,0,0Z"/><path class="cls-3" d="M30.59,130.26c0-.9-1.22-1.76,0,0Z"/><path class="cls-2" d="M9.57,129c1,0,0-1.19,0,0Z"/><path class="cls-3" d="M177.83,130.57c-.19-.78.14.8,0,0Z"/><path class="cls-3" d="M177,110.38c0-1.08-1.24-.24,0,0Z"/><path class="cls-2" d="M176.66,129.16c-.81-2.08-.21-.09,0,0Z"/><path class="cls-3" d="M153.17,112.1c-1.32,0,1.07,2,0,0Z"/><path class="cls-3" d="M147.54,121.65c0-.38-1.61-.87,0,0Z"/><path class="cls-2" d="M143.9,117.58c-.91.08,1.06,0,0,0Z"/><path class="cls-3" d="M110.55,124.47c1-.18,0-.09,0,0Z"/><path class="cls-3" d="M92.82,124.31c.34,2.11.8.79,0,0Z"/><path class="cls-3" d="M87.07,118.05c-.45-.09-.2,1.12,0,0Z"/><path class="cls-3" d="M62.18,128.53c-1.59-.35,2.58,1.27,0,0Z"/><path class="cls-3" d="M60.77,128.69c-.22,0,.32,0,0,0Z"/><path class="cls-3" d="M55.6,124c-.52,0-1,.63,0,0Z"/><path class="cls-3" d="M39.75,128.22c0,1.22,1.77-.3,0,0Z"/><path class="cls-3" d="M40.1,129.47c-1.29,0-.19,1.86,0,0Z"/><path class="cls-2" d="M10.28,116.64c.48-2.26-2.68-.61-1.11-.12l.12,0A4.21,4.21,0,0,0,10.28,116.64Z"/><path class="cls-3" d="M142.49,60.41c-1.1.55,0,1.82,0,0Z"/><path class="cls-3" d="M134,51c0,.65.69,1.17,0,0Z"/><path class="cls-3" d="M148.36,46.64c0,.47,1,2.41,0,0Z"/><path class="cls-3" d="M105.39,75.28Z"/><path class="cls-3" d="M93.18,72.78c-.16.62.46-.62,0,0Z"/><path class="cls-3" d="M63.12,31.77c-1.39-.08,0,1.58,0,0Z"/><path class="cls-3" d="M30.71,3.44c-1.52,0,0,.51,0,0Z"/><path class="cls-3" d="M49.73,18.78c0-2.14-.87,0,0,0Z"/><path class="cls-3" d="M67.11,28.17c0-.5-1.36-.05,0,0Z"/><path class="cls-3" d="M162.57,91.56c1.9-2.69-2.64.59,0,0Z"/><path class="cls-2" d="M156.34,78.1c.2,0,0-.31,0,0Z"/><path class="cls-3" d="M155.76,2.19c0,1.35,1.53,0,0,0Z"/><path class="cls-2" d="M175.13,10.8c-1.19,0,.19,1.79,0,0Z"/><path class="cls-2" d="M144.84,104.24c0,1.71.51.15,0,0Z"/><path class="cls-3" d="M170.9,50.71c-.61-.11,1.08,1.86,0,0Z"/><path class="cls-2" d="M136,28.48c-.12.39,1.19.37,0,0Z"/><path class="cls-3" d="M176.31,87.33c-.13,0-.13,1.46,0,0Z"/><path class="cls-3" d="M174.78,33.65c.09.55.56-.46.24-.47S174.74,33.33,174.78,33.65Z"/><path class="cls-2" d="M174.43,41.79c-3.84-.4-.16.94,0,0Z"/><path class="cls-3" d="M173.49,35.53c.32,2.4.94-.39,0,0Z"/><path class="cls-3" d="M172.32,91.09c-.08-1.88-.29,3.2,0,0Z"/><path class="cls-3" d="M168.09,9.23c-.05.36,3.12-.68,0,0Z"/><path class="cls-3" d="M167.15,49.61c0,.09,1.35.79,0,0Z"/><path class="cls-3" d="M166.09,81.23c-.05.25-.08.44-.1.6l0,0a2.51,2.51,0,0,1-.05.39C166.09,83.15,167.37,81.28,166.09,81.23Z"/><path class="cls-3" d="M166,81.83a1.59,1.59,0,0,0,0,.37,2.51,2.51,0,0,0,.05-.39Z"/><path class="cls-3" d="M166,81.83a1.59,1.59,0,0,0,0,.37,2.51,2.51,0,0,0,.05-.39Z"/><path class="cls-2" d="M164.57,19.41c-.1,0-.24,2,0,0Z"/><path class="cls-3" d="M162.22,60.57c.2,1.73,4.16-1,0,0Z"/><path class="cls-2" d="M160.34,11.27c-.3,1.22.43,1.06,0,0Z"/><path class="cls-3" d="M159.52,105.8c-.19,1.53,1.31.07,0,0Z"/><path class="cls-3" d="M158.81,58.38c-.1,0-.65,2.52,0,0Z"/><path class="cls-3" d="M155.29,62.29c0-.09-1,.08,0,0Z"/><path class="cls-3" d="M154.35,31.77c-.18-.05-2.27,1.17,0,0Z"/><path class="cls-3" d="M155.17,33.65c1.4,2,1.1-.4,0,0Z"/><path class="cls-2" d="M155.76,4.07c-.14,1.22,1.05.08,0,0Z"/><path class="cls-3" d="M154.12,23.16c0,1.82,0-.63,0,0Z"/><path class="cls-2" d="M136.74,47.27c.35-1.37,0-.39,0,0Z"/><path class="cls-3" d="M149.77,17.37c-3.1-.68-.72.84,0,0Z"/><path class="cls-3" d="M148.13,4.07c-.42-1.72-.6,0,0,0Z"/><path class="cls-2" d="M146.13,118c.68.12.82-1.14,0,0Z"/><path class="cls-3" d="M145.66,15.81c-1.22-.32-.38.57,0,0Z"/><path class="cls-3" d="M144.37,70.9c-.92-1.12-1.14-.52,0,0Z"/><path class="cls-2" d="M142.61,15.49c-.49-.37-2.21.58,0,0Z"/><path class="cls-2" d="M141.67,15.49a.53.53,0,0,0-.24-.78A.6.6,0,0,0,141.67,15.49Z"/><path class="cls-3" d="M141.79,1.56c-1.56-4.49,0,3,0,0Z"/><path class="cls-2" d="M139.32,48.2c-1.4.76.15,1.11,0,0Z"/><path class="cls-2" d="M136.38,99.7c-.56.13-.24,1.22,0,0Z"/><path class="cls-3" d="M137.44,58.38c.15-1.52-1.16,0,0,0Z"/><path class="cls-3" d="M136.92,68.9c.08-.18,0-.41-.42-.35a.8.8,0,0,0,.09.48C136.78,68.87,136.88,68.84,136.92,68.9Z"/><path class="cls-3" d="M136.92,68.9c0-.06-.14,0-.33.13C136.69,69.17,136.85,69.06,136.92,68.9Z"/><path class="cls-3" d="M136.92,68.9c0-.06-.14,0-.33.13C136.69,69.17,136.85,69.06,136.92,68.9Z"/><path class="cls-3" d="M136.85,66.83c-.06-1.57-.6-.33,0,0Z"/><path class="cls-3" d="M61.47,81.7c-.21.07-.56.72,0,0Z"/><path class="cls-2" d="M69.92,83c.41,0,.07-4,0,0Z"/><path class="cls-2" d="M59.12,67.45c.14-.14-1.36,0,0,0Z"/><path class="cls-3" d="M95.52,96.72c0,.42,2.3,1.07,0,0Z"/><path class="cls-3" d="M99.75,100.64c-1.43-.46,0,.45,0,0Z"/><path class="cls-3" d="M103.74,103c-.16.31,1.6,0,0,0Z"/><path class="cls-2" d="M91.3,81.23c0-2.24-2.14,1.07,0,0Z"/><path class="cls-3" d="M96.58,86.24c-.57-.37-.33,1.92,0,0Z"/><path class="cls-2" d="M134.74,109.56c2.91-1.12-.87,0,0,0Z"/><path class="cls-3" d="M134.86,91.4c-.53,0,.06.68,0,0Z"/><path class="cls-2" d="M133.56,15.34c2,.47-.78-1.6,0,0Z"/><path class="cls-3" d="M129.34,4.69c-2.12,0,0,0,0,0Z"/><path class="cls-2" d="M128.17,3.6c-2-.84.6,2.93,0,0Z"/><path class="cls-3" d="M128.05,33.81c.45-.74-1.51-1,0,0Z"/><path class="cls-3" d="M127.46,50.71c-.18-.79-.44,2.24,0,0Z"/><path class="cls-2" d="M91.65,7.2c.12-1.22-1.6.32,0,0Z"/><path class="cls-3" d="M115.6,27.23c0-.1-1.4.14,0,0Z"/><path class="cls-3" d="M124.61,82.82a.78.78,0,0,1,.24,0q0-.09,0-.21c-1.25-.4-.45,1.12-.12.52A.72.72,0,0,1,124.61,82.82Z"/><path class="cls-2" d="M124.61,82.82a.72.72,0,0,0,.15.34.89.89,0,0,0,.09-.31A.78.78,0,0,0,124.61,82.82Z"/><path class="cls-3" d="M124.61,82.82a.72.72,0,0,0,.15.34.89.89,0,0,0,.09-.31A.78.78,0,0,0,124.61,82.82Z"/><path class="cls-3" d="M125,102.36c0-.51-1.3.22,0,0Z"/><path class="cls-2" d="M124.29,84.52c0,1.45,1.51,0,0,0Z"/><path class="cls-2" d="M120.65,24.89c1.46-.27,1.39-1.66,0,0Z"/><path class="cls-2" d="M120.89,41.94c.39,2.16-.09-.78,0,0Z"/><path class="cls-2" d="M119.83,52.74c0,1,.48,0,0,0Z"/><path class="cls-3" d="M119.71,11.89c-.19,1.19.43,2.51,0,0Z"/><path class="cls-2" d="M119.59,104.55c-1.4,0,.65.68,0,0Z"/><path class="cls-3" d="M118.54,92.65c1-3.38-1.44,0,0,0Z"/><path class="cls-3" d="M118.54,103.92c-1-.16-.25,1.59,0,0Z"/><path class="cls-3" d="M117.25,82c-2-.7,2.45,2.71,0,0Z"/><path class="cls-3" d="M116.19,60.72c-.4-1.3-.62,2.13,0,0Z"/><path class="cls-2" d="M115,23.79c-1.41.52,1.36,0,0,0Z"/><path class="cls-3" d="M114.78,58.85c.11.27,0,.78.23.94C115.1,59.42,115.28,58.79,114.78,58.85Z"/><path class="cls-3" d="M114.54,110.81c0-.48-.15-.33,0,0Z"/><path class="cls-3" d="M113.25,22.69c-2,.57.62,1.49,0,0Z"/><path class="cls-3" d="M111.49,9.86c-.81,0,0,1.48,0,0Z"/><path class="cls-2" d="M110.2,2.35c-.27,1.24.22,1.82,0,0Z"/><path class="cls-2" d="M110.43,25.67c-2.43.22.83,2.09,0,0Z"/><path class="cls-3" d="M109.73,104.55c0,1.18,1.38,1.34,0,0Z"/><path class="cls-3" d="M109.85,22.07c.19,1.56.24.12,0,0Z"/><path class="cls-2" d="M109.61,107.05c0-2.44-1.38,1.34,0,0Z"/><path class="cls-3" d="M107.5,28.8c.24-1.59-.94,0,0,0Z"/><path class="cls-2" d="M105.5,90.62c-1.14.32.83.08,0,0Z"/><path class="cls-2" d="M103.27,117.54c-.81,0,.22,1.06,0,0Z"/><path class="cls-2" d="M101,63.23c.17.84.08-.21,0,0Z"/><path class="cls-3" d="M99.63,4.85c0,1.63.84-.17,0,0Z"/><path class="cls-2" d="M98.58,110.34c.06,1.12.19.15,0,0Z"/><path class="cls-3" d="M98.58,111.12c0-.48-3-.82,0,0Z"/><path class="cls-2" d="M98.81,1.25c-1.09-.18-.12.72,0,0Z"/><path class="cls-3" d="M98.46,98.13c.2-.88-1.38,0,0,0Z"/><path class="cls-2" d="M93.76,10.8Z"/><path class="cls-3" d="M94.47,96.72c0,.06,2.46,2.3,0,0Z"/><path class="cls-2" d="M93.18,11.89c-.1-1.08-.28,0,0,0Z"/><path class="cls-3" d="M91.41,57.91c.16-1.7-.86-.23,0,0Z"/><path class="cls-2" d="M66.4,95.31c-.07.73,2.06-.6,0,0Z"/><path class="cls-2" d="M92.12,50.24c-1,0,.08.93,0,0Z"/><path class="cls-2" d="M91.7,113.67a.18.18,0,0,0-.17-.09s0,0,0,0a.38.38,0,0,0-.22.07.7.7,0,0,0-.24.91C91.64,114.09,91.76,113.8,91.7,113.67Z"/><path class="cls-2" d="M90.71,79.66c.05,0,.6-.22,0,0Z"/><path class="cls-3" d="M90.47,9.23c.37,2.74.22,0,0,0Z"/><path class="cls-2" d="M83,27.7c-.55,0-.19.56,0,0Z"/><path class="cls-3" d="M89.07,55.4c0,1.82.7,0,0,0Z"/><path class="cls-2" d="M89,34.74c-1.12-.4,0,0,0,0Z"/><path class="cls-3" d="M88.71,98.29c-.38-2.6.09,1.65,0,0Z"/><path class="cls-2" d="M87.89,33.18c0-1.28-.25.41,0,0Z"/><path class="cls-2" d="M85.9,83.26c.24.34.44.07.35-.47C85.94,82.7,85.83,82.86,85.9,83.26Z"/><path class="cls-3" d="M84.25,84.52c.62.73.5,1-.35.78C84,86,88,86.43,84.25,84.52Z"/><path class="cls-3" d="M82.61,59.94c-1.18.1.73,0,0,0Z"/><path class="cls-2" d="M83,100.16c-.18-1.44-1.79.18,0,0Z"/><path class="cls-3" d="M80.61,82.17c.08.71,0-1.17,0,0Z"/><path class="cls-3" d="M63.7,102.2c0,.15.44,1.3,0,0Z"/><path class="cls-3" d="M80.14,105.8c0-.25-2.26-.26,0,0Z"/><path class="cls-3" d="M48.91,80.76c-.58-.5-2.22-1.85,0,0Z"/><path class="cls-2" d="M53.37,82.79c-.14-.67-.67.39,0,0Z"/><path class="cls-2" d="M57.48,87.49c-.14-1.46-2.06-.47,0,0Z"/><path class="cls-2" d="M75.21,23.63c0,2.38.1-.94,0,0Z"/><path class="cls-3" d="M75.21,111c-.39-2,0,2.21,0,0Z"/><path class="cls-2" d="M72.74,79.82c0-1.85-1.67-.18,0,0Z"/><path class="cls-3" d="M70.28,43.51s0,.28,0,0Z"/><path class="cls-3" d="M69.46,43c.44-.55.54-.69,0,0Z"/><path class="cls-3" d="M66.87,8.92c-.23,1.22,1.06,0,0,0Z"/><path class="cls-3" d="M63.82,73.4c-.07.92.83,0,0,0Z"/><path class="cls-3" d="M50.08,33.65c-.14.85.49.56,0,0Z"/><path class="cls-2" d="M63.7,68.39c0-1.5-1.28.87,0,0Z"/><path class="cls-3" d="M61.59,66.83c.07-.94-.19-2.39,0,0Z"/><path class="cls-2" d="M62.53,103.3c0-.21-2.73-.31,0,0Z"/><path class="cls-3" d="M60.3,87.8c0,.86.8.56,0,0Z"/><path class="cls-3" d="M60.18,4.38c.31.14-2.08-4.52,0,0Z"/><path class="cls-2" d="M47.73,87c0-.07-.84.17,0,0Z"/><path class="cls-3" d="M57.71,27.55c1.5,0,.48-2.32,0,0Z"/><path class="cls-3" d="M58,95.16c1.54,0,0-.79,0,0Z"/><path class="cls-3" d="M57.83,24.42c0-2.23-1.07.5,0,0Z"/><path class="cls-3" d="M57.83,101.42c-.32-.1-.29-.66-.7-.63C57.23,101.08,57.58,101.85,57.83,101.42Z"/><path class="cls-2" d="M57,98.76c1.09,0-.83,0,0,0Z"/><path class="cls-3" d="M56.19,7.2c0,1,1.25,1.44,0,0Z"/><path class="cls-2" d="M38.34,94.22c0-1.76-1.45-.7,0,0Z"/><path class="cls-3" d="M54.31,48.67c.61.75.33-1.45,0,0Z"/><path class="cls-2" d="M54.19,17.84c0-1.05-.52-.28,0,0Z"/><path class="cls-3" d="M53.25,63.54c-1.44.56.56.91,0,0Z"/><path class="cls-3" d="M50.67,39.91a.91.91,0,0,0,.11.47C51.37,40.58,51.17,39.6,50.67,39.91Z"/><path class="cls-3" d="M50.9,38.81c-.33-.67-1.7,0,0,0Z"/><path class="cls-2" d="M50.2,54c0,.42,0,1.33,0,0Z"/><path class="cls-3" d="M50,80.13c-.44,0-.55,2.82,0,0Z"/><path class="cls-3" d="M49.14,70.74c-.5,0-.17.77.24.47S49.12,71,49.14,70.74Z"/><path class="cls-3" d="M48.09,72.78c2,0-2.42-1.79,0,0Z"/><path class="cls-3" d="M47,45.86c-1.32.84.6,0,0,0Z"/><path class="cls-3" d="M44,76.53c0,1.65,1,.09,0,0Z"/><path class="cls-3" d="M43.39,56c.75-.23.41-1.85,0,0Z"/><path class="cls-3" d="M42.33,52.27c0,.3.56.77,0,0Z"/><path class="cls-3" d="M42,65.42c-1.87,0,.05,1.38,0,0Z"/><path class="cls-3" d="M40.57,30.2c.15,1.13.73,1,0,0Z"/><path class="cls-2" d="M38.22,39.28c-1.2,0-.09,2.12,0,0Z"/><path class="cls-3" d="M38.22,39.28c-.11-1.28-1.92,0,0,0Z"/><path class="cls-3" d="M34.82,91.4c-.83-1-.76.23,0,0Z"/><path class="cls-3" d="M33.53,4.69c.81.3-1-2.14,0,0Z"/><path class="cls-2" d="M31.41,41a4.64,4.64,0,0,1,.71.62C32.79,41.22,31.44,40.37,31.41,41Z"/><path class="cls-3" d="M28.71,33.49c-1.37,0,.87,1.33,0,0Z"/><path class="cls-3" d="M27.65,32.71c-.73-1.71-2.2,0,0,0Z"/><path class="cls-3" d="M26.6,93.91c-.22-2.07-.89.42,0,0Z"/><path class="cls-3" d="M25.42,20.66c.08-1.12-.35,0,0,0Z"/><path class="cls-3" d="M25,53.21c-.09-2-1.08,2.39,0,0Z"/><path class="cls-3" d="M23.19,19.87c-.09-3-2.2.52,0,0Z"/><path class="cls-3" d="M20.37,6c-.19-1.23-1.23-.25,0,0Z"/><path class="cls-3" d="M179.59,26.92c0,.54.88.19,0,0Z"/><path class="cls-3" d="M174.55,99.7c.9-1.91,0-.79,0,0Z"/><path class="cls-3" d="M174.07,20.66c-.75.35-.65.32,0,0Z"/><path class="cls-3" d="M167.38,44.29c-.85.23,0,.26,0,0Z"/><path class="cls-3" d="M163.51,39.28c-.36,1.32.24.07,0,0Z"/><path class="cls-2" d="M163,7c0-.75-.69-.61,0,0Z"/><path class="cls-3" d="M158.58,84.52c-1.08-.24,2.32,3.07,0,0Z"/><path class="cls-3" d="M157.87,53.68c.34,0-.11-.93,0,0Z"/><path class="cls-3" d="M157.05,58.85c-1.91.58,2-.4,0,0Z"/><path class="cls-3" d="M149.65,70.12c-1.85-1.8.6,1.55,0,0Z"/><path class="cls-3" d="M141.32,16.59c-.6,0,0,2.14,0,0Z"/><path class="cls-3" d="M140.85,73.87c-1-.33,0,.07,0,0Z"/><path class="cls-3" d="M138.38,117.54c.71-1.48-2.16-.36,0,0Z"/><path class="cls-3" d="M134.27,42.57c.18,0,.37-1.88,0,0Z"/><path class="cls-3" d="M133.1,23.94c0,.51,2,.17,0,0Z"/><path class="cls-3" d="M131,1.25c-.12.53.17.51.47.47C131.49,1.31,131.29,1.21,131,1.25Z"/><path class="cls-3" d="M129.46,63.54c-1.05-1.07.79,1.53,0,0Z"/><path class="cls-3" d="M128.64,85.92c-.14,1.45,1.27,0,0,0Z"/><path class="cls-3" d="M128.87,27.23s-.25-1.35,0,0Z"/><path class="cls-3" d="M127.11,50.08c-.76-.32,0,1.28,0,0Z"/><path class="cls-3" d="M126.4,38.5c-.57,0-1,.19,0,0Z"/><path class="cls-3" d="M125.58,8.76c-.17.05,0,1.19,0,0Z"/><path class="cls-2" d="M123.47,16.59c0-1.2-2.37.27,0,0Z"/><path class="cls-3" d="M119.59,0c-1.33,0,.17.19,0,0Z"/><path class="cls-3" d="M119,107.83c-.4-.51-.59-.27,0,0Z"/><path class="cls-3" d="M114.19,59.32c-.11.07.1,0,0,0Z"/><path class="cls-3" d="M110,54.62c-1.6-1.52.38,1.52,0,0Z"/><path class="cls-2" d="M108.91,68.24c-.26.06-.16.92.23.62C109.18,68.51,109.11,68.28,108.91,68.24Z"/><path class="cls-3" d="M108.91,104.39a1.12,1.12,0,0,1-.12.63C109.44,105.26,109.32,104.39,108.91,104.39Z"/><path class="cls-2" d="M108.32,29.58c-.15-1.44-.42-.08,0,0Z"/><path class="cls-2" d="M104.45,8.14c0-.88-1.19,0,0,0Z"/><path class="cls-3" d="M102.33,17.53c-.06-1.4-1.12.22,0,0Z"/><path class="cls-3" d="M100.92,69c-.09-.61-1.09-.33,0,0Z"/><path class="cls-3" d="M100.45,49.14c-1.58,0,.94.77,0,0Z"/><path class="cls-3" d="M98.34,103.45c-.07,1.71,2.89-1.28,0,0Z"/><path class="cls-2" d="M97.17,14.4c.85.11,0-1.35,0,0Z"/><path class="cls-2" d="M92.24,99.7c.48.07.43-.73-.12-.47C92.11,99.45,92.1,99.67,92.24,99.7Z"/><path class="cls-3" d="M83.78,57.12c0,.58.29.66.59.79C84.32,57.45,84,57.4,83.78,57.12Z"/><path class="cls-3" d="M82.84,81.54c.06.61-.21.77-.12,1.41C82.85,82.69,83.13,81.83,82.84,81.54Z"/><path class="cls-3" d="M82.72,107.83c-.86-1.94,0,1.16,0,0Z"/><path class="cls-3" d="M80.38,28.64c-.07-.65,0,2.15,0,0Z"/><path class="cls-3" d="M80.14,23.94c-.26-2,0,.17,0,0Z"/><path class="cls-3" d="M74.74,13.46c-.25-1.87,0,2.34,0,0Z"/><path class="cls-3" d="M65,74.5c.4,2.28.65,0,0,0Z"/><path class="cls-3" d="M64.29,68.24c-1.33.22,0,.33,0,0Z"/><path class="cls-3" d="M55.37.31c-1.1.73,1.14.42,0,0Z"/><path class="cls-2" d="M54,51.49c.94,0,0-1,0,0Z"/><path class="cls-3" d="M54.19,92c-.24.21-.47,1.69,0,0Z"/><path class="cls-2" d="M52.9,8.61c-.07-.5-.79,3.24,0,0Z"/><path class="cls-3" d="M53,13.93c-1.5,0-.89.14,0,0Z"/><path class="cls-3" d="M47.15,83.11c0-1.9-2.24-.18,0,0Z"/><path class="cls-3" d="M46.56,37.25c-.12-.85-2.1.15,0,0Z"/><path class="cls-3" d="M42.57,66.52c-.2-.91-.48.4-.59.62C42.36,67.18,42.54,67,42.57,66.52Z"/><path class="cls-3" d="M32.94,28.64c-1.07-.06,0,.18,0,0Z"/><path class="cls-3" d="M19.67,34.9c-.36-.06-.24.51-.35.78C19.65,35.71,19.66,35.3,19.67,34.9Z"/><path class="cls-3" d="M140.26,102.51c-3.15.21,2.78,0,0,0Z"/><path class="cls-3" d="M71.45,87.49c-1.28-.51,0,1.1,0,0Z"/></g></g><g class="cls-4"><g class="cls-1"><path class="cls-5" d="M167.17,123a2.92,2.92,0,0,1-.4.59.54.54,0,0,1-.41.11C166.34,122.89,166.8,122.65,167.17,123Z"/><path class="cls-5" d="M136,115l-.15-.16c0-.1,0-.18,0-.25l.27-.25a1.82,1.82,0,0,1,.16.5A2.26,2.26,0,0,0,136,115Z"/><path class="cls-5" d="M122.66,115.74a2.43,2.43,0,0,1,.58.43.51.51,0,0,1,.11.43C122.54,116.61,122.3,116.13,122.66,115.74Z"/><path class="cls-6" d="M46.68,114.79c.12,1.07-.69,0,0,0Z"/><path class="cls-5" d="M54.25,123.23c0-1.06,1.48-.76,0,0Z"/><path class="cls-6" d="M36,117.91c0-1.53.13,0,0,0Z"/><path class="cls-5" d="M52.25,120.26c-.1.45-1.41,1.76,0,0Z"/><path class="cls-5" d="M61.26,119.63c.45,0,0,2.26,0,0Z"/><path class="cls-6" d="M87.54,128.07c0-.46.68-1.7,0,0Z"/><path class="cls-6" d="M73.62,126.66c.35-1.3.69-.36,0,0Z"/><path class="cls-6" d="M75.18,118.07c1,.31-.55.88,0,0Z"/><path class="cls-6" d="M149.44,123.54c1.11,1.59-.24,0,0,0Z"/><path class="cls-6" d="M80.86,125.88c-3-.24,0-.19,0,0Z"/><path class="cls-5" d="M85.42,115.88c1.25-5.34-.07,1.45,0,0Z"/><path class="cls-6" d="M89.1,114.47c-1.55,0,.34-1,0,0Z"/><path class="cls-6" d="M94.44,112.13c2.57,0,0,1,0,0Z"/><path class="cls-5" d="M97,111.82s-1.1.2,0,0Z"/><path class="cls-5" d="M99.12,123.07c.23,0,.95-.71,1,0C99.72,122.92,99.2,124.24,99.12,123.07Z"/><path class="cls-6" d="M101.79,117.29c.67,0-.22.86,0,0Z"/><path class="cls-6" d="M105.13,126.82c-1.27.16-.27-1.66,0,0Z"/><path class="cls-5" d="M114.26,112.28c0-.94,1.84,2.11,0,0Z"/><path class="cls-6" d="M114.81,117.29c-1.09-.42-.09-1.25,0,0Z"/><path class="cls-6" d="M115.37,123.07c.59-.25.17,1.85,0,0Z"/><path class="cls-5" d="M119,130.26c.14-3.79,1.15,0,0,0Z"/><path class="cls-6" d="M121.27,124.79c.36,0,.34,3.21,0,0Z"/><path class="cls-5" d="M122.61,127.13c.6.12,0,1.34,0,0Z"/><path class="cls-6" d="M124.05,112.91c-1.58.19.06-.25,0,0Z"/><path class="cls-6" d="M132.74,116.82c.79,0-.46,2.62,0,0Z"/><path class="cls-5" d="M136,115c-.31.17-.59.34-.84.49a.5.5,0,0,1,.13,0c0,.4-.16.61-.45.63a.69.69,0,0,1,.18-.51c-.85.52-1.18.71-.07-.27a3.94,3.94,0,0,0,.88-.72c0,.07,0,.15,0,.25Z"/><path class="cls-5" d="M139,113.69a7.37,7.37,0,0,0-2.7,1.1,1.82,1.82,0,0,0-.16-.5C137.28,113.16,138.79,111.73,139,113.69Z"/><path class="cls-5" d="M136.11,114.29l-.27.25C135.82,113.93,136,114,136.11,114.29Z"/><path class="cls-5" d="M136,115a2.26,2.26,0,0,1,.26-.16C136.31,115,136.25,115.18,136,115Z"/><path class="cls-6" d="M149.77,122.13c-.11-1.77.21,1.28,0,0Z"/><path class="cls-5" d="M156.23,131.51c.07,0-.18,1.67,0,0Z"/><path class="cls-6" d="M158.79,118.85c0,1.85-.17-2.12,0,0Z"/><path class="cls-5" d="M167.17,123c-.37-.35-.83-.11-.81.7a.54.54,0,0,0,.41-.11c-.36.38-.74.48-.63-.52C167.39,122,167.45,122.45,167.17,123Z"/><path class="cls-5" d="M167.25,123.07c-.19.13-.3.37-.48.52a2.92,2.92,0,0,0,.4-.59Z"/><path class="cls-5" d="M167.25,114.79c3-.94.38,1.39,0,0Z"/><path class="cls-6" d="M172.93,125.41c.19-.93.2,1.7,0,0Z"/><path class="cls-6" d="M173,124.32c-.61-.09-.37-.22,0,0Z"/><path class="cls-6" d="M32.43,128.07c.11,1-1.24,1.26,0,0Z"/><path class="cls-5" d="M46.68,124.48c-.22,0-.14.42-.45.31C46,124.25,46.72,123.82,46.68,124.48Z"/><path class="cls-5" d="M53.92,119.47c-.87-.53,1.26.1,0,0Z"/><path class="cls-6" d="M78.07,121.82c0,.15-1.43,0,0,0Z"/><path class="cls-6" d="M79.52,114.79c-.46,0,.42-2.69,0,0Z"/><path class="cls-5" d="M82.68,125a1.17,1.17,0,0,0,.31-.09C83.23,125.16,82.81,125.47,82.68,125Z"/><path class="cls-5" d="M83.75,116.82c0,.44,0-.5,0,0Z"/><path class="cls-6" d="M89.21,122.6c.4-.36.15.8,0,0Z"/><path class="cls-5" d="M98.22,126.35c-.9,1.64-.54-1.95,0,0Z"/><path class="cls-6" d="M108.13,130.73c.2-.81-.12.79,0,0Z"/><path class="cls-6" d="M108.91,110.56c0-1.06,1.17-.23,0,0Z"/><path class="cls-5" d="M109.25,129.32c.76-2,.22-.11,0,0Z"/><path class="cls-6" d="M131.51,112.28c1.28,0-1,2,0,0Z"/><path class="cls-6" d="M136.86,121.82c0-.4,1.47-.84,0,0Z"/><path class="cls-5" d="M140.31,117.76c.86.08-1,0,0,0Z"/><path class="cls-6" d="M171.93,124.63c-.94-.18,0-.1,0,0Z"/><path class="cls-5" d="M23.64,84c1.49.19.43.14,0,0Z"/><path class="cls-6" d="M66.94,70.67c.4.16.12,2.35,0,0Z"/><path class="cls-6" d="M60.93,72.54c.52,2.58-.38,0,0,0Z"/><path class="cls-6" d="M141.64,60.67c1.07.55,0,1.8,0,0Z"/><path class="cls-6" d="M149.66,51.29c0,.64-.65,1.15,0,0Z"/><path class="cls-6" d="M136.08,46.91c0,.49-1,2.37,0,0Z"/><path class="cls-6" d="M63.93,85.2c.33,1.5-1.45-1.2,0,0Z"/><path class="cls-5" d="M88.43,67.07c1.15,2.05-1.55,0,0,0Z"/><path class="cls-5" d="M86.42,57.38c-.08.95-.66.5-1.11,1.1C85.58,58,85.82,57.43,86.42,57.38Z"/><path class="cls-6" d="M84.64,33.47c.37,0,.29,1.89,0,0Z"/><path class="cls-6" d="M65.61,45.66c-.16.25-1,.31,0,0Z"/><path class="cls-5" d="M65.61,36.12c1.52,2.08-2.46-.24,0,0Z"/><path class="cls-5" d="M69,24.72c.16.82-1.5-.57,0,0Z"/><path class="cls-6" d="M57.48,14.4c0,.75-.08-2.28,0,0Z"/><path class="cls-5" d="M23.3,23.46c.08-.53,1.5.12,0,0Z"/><path class="cls-5" d="M33.54,13.31c.67-.29-.19,2.17,0,0Z"/><path class="cls-6" d="M8.27,101.62h.67C8.91,102.48,8.49,101.79,8.27,101.62Z"/><path class="cls-5" d="M3.59,44.09c-2,.22,0-1.33,0,0Z"/><path class="cls-5" d="M4.37,74.89c-.37.07-.77-.37,0,0Z"/><path class="cls-6" d="M15.17,67.85c0,1.93-1,1.51,0,0Z"/><path class="cls-6" d="M12.72,105.37c1.33,0,0,1.61,0,0Z"/><path class="cls-6" d="M11.72,112.24c0-.72,1.36,0,0,0Z"/><path class="cls-6" d="M9.16,26.9c0-1.32,0,.56,0,0Z"/><path class="cls-6" d="M10.27,74.58c-.07,1.48-.49,1.44,0,0Z"/><path class="cls-6" d="M11.05,71.45c0,.41,0,.67-.33.62C10.69,71.66,10.76,71.4,11.05,71.45Z"/><path class="cls-5" d="M14.62,4.86c-.4,1.51-1.94,0,0,0Z"/><path class="cls-6" d="M18,72.39c0-.87.89-1,0,0Z"/><path class="cls-6" d="M23.52,27.22c-.9-3.21,1.75.65,0,0Z"/><path class="cls-6" d="M26.64,82.7c.05.41-.39.89-.56.47C26.35,83.12,26.29,82.63,26.64,82.7Z"/><path class="cls-6" d="M36.1,3.77c.3,0-3,1.21,0,0Z"/><path class="cls-6" d="M36.88,13.62c.53,2.31-.7.12,0,0Z"/><path class="cls-5" d="M38.77,28.94c.08-.59.54-1.55,0,0Z"/><path class="cls-6" d="M38.77,41c.16,0,0,.89,0,0Z"/><path class="cls-5" d="M41.22.18c1.46,2-1.93,0,0,0Z"/><path class="cls-5" d="M43.67,38.16c-1,0,0-.07,0,0Z"/><path class="cls-6" d="M44.23,36.59c.61.13,1.37,1.89,0,0Z"/><path class="cls-6" d="M45,84c.12-1.47,0,1.46,0,0Z"/><path class="cls-5" d="M50.8,80.2c-1.55.21-.29-.67,0,0Z"/><path class="cls-6" d="M51.13,80.52c.32-.64,2.12-.33,0,0Z"/><path class="cls-6" d="M53.8,63.79c-2.8,1,.06-.29,0,0Z"/><path class="cls-6" d="M58.7,67.85c0,.17-2.39,1.57,0,0Z"/><path class="cls-6" d="M176.82,75.51c-.15,1.12,0-.07,0,0Z"/><path class="cls-6" d="M122.61,91.77c-1.82-2.71,2.51.6,0,0Z"/><path class="cls-5" d="M128.51,78.33c-.17,0,0-.32,0,0Z"/><path class="cls-5" d="M61.15,92.55c-.43-1.16.12,0,0,0Z"/><path class="cls-5" d="M60.37,110.37c-.09-1.14,1.39-.2,0,0Z"/><path class="cls-6" d="M62.38,9.24Z"/><path class="cls-6" d="M62.71,20.65c.86-2.3,0,1.3,0,0Z"/><path class="cls-6" d="M64.94,71.45c0-2.23,1.94-1,0,0Z"/><path class="cls-6" d="M65.94,88.48c-.29,0-.37-.21-.33-.62C65.9,87.81,66,88.08,65.94,88.48Z"/><path class="cls-6" d="M66.38,87.39c.08,1.19-.52,0,0,0Z"/><path class="cls-6" d="M67.94,60.51c-.43,2.29-.35.58,0,0Z"/><path class="cls-6" d="M68.39,42.53c-.22,2.66-.28-1.65,0,0Z"/><path class="cls-6" d="M69.28,108.18c1-2.14.68,0,0,0Z"/><path class="cls-6" d="M69.5,91.92c2-.16-1.16.46,0,0Z"/><path class="cls-6" d="M72.51,13.31c0,.51-1.13.46,0,0Z"/><path class="cls-6" d="M70.5,65.82c0,1.64-.61.53,0,0Z"/><path class="cls-6" d="M72.51,5.49c-1.05-.59,2.18-1.67,0,0Z"/><path class="cls-5" d="M74.51,56.13c.08,0,.07,1.18,0,0Z"/><path class="cls-6" d="M75.07,116.15c0-.13.28-.28,0,0Z"/><path class="cls-6" d="M75.63,71.92c.16,1.53-2.4-.76,0,0Z"/><path class="cls-5" d="M75.85,38c1-.09-.07.64,0,0Z"/><path class="cls-5" d="M78.85,108.65c0-.57.88.37,0,0Z"/><path class="cls-5" d="M83,33c-.1,1.24-.36,1.09,0,0Z"/><path class="cls-5" d="M83.08,31.12c-.93,1.31.67-2,0,0Z"/><path class="cls-5" d="M83.31,57.38c-.93,1.19-.48-1.83,0,0Z"/><path class="cls-6" d="M84.09,99.11c1.88-1.47.23,1.5,0,0Z"/><path class="cls-5" d="M86.2,19.87c1.1-1.46-.55,1.65,0,0Z"/><path class="cls-6" d="M86.53,14.09c.1,1.79-.12-.06,0,0Z"/><path class="cls-6" d="M88.65,88c-1.68-.55-.52-.4,0,0Z"/><path class="cls-6" d="M129.06,2.52c0,1.35-1.46,0,0,0Z"/><path class="cls-5" d="M110.69,11.12c1.14,0-.17,1.79,0,0Z"/><path class="cls-6" d="M88.54,31.44c1.24,0-1.05.21,0,0Z"/><path class="cls-6" d="M89.1,59.1c1.35-.5-.19.86,0,0Z"/><path class="cls-5" d="M94.66,93c2.31,0-1.86.76,0,0Z"/><path class="cls-6" d="M95.44,47.22c.65-2,0,2.92,0,0Z"/><path class="cls-6" d="M98.11,25.81c-.74-1.65.18-.75,0,0Z"/><path class="cls-6" d="M99.9,95.52c1.92,0-2.32.15,0,0Z"/><path class="cls-6" d="M101,38.63c.51,0,.12,1.37,0,0Z"/><path class="cls-6" d="M101.23,61.6c1.3.1-.56,1,0,0Z"/><path class="cls-6" d="M101.45,92.39c1.23.15,0,1.28,0,0Z"/><path class="cls-6" d="M102,15.65c-.18,3.91,0-3.17,0,0Z"/><path class="cls-6" d="M103,74.89c-.11-.52.16-.52.45-.47C103.57,74.94,103.3,74.93,103,74.89Z"/><path class="cls-5" d="M139.42,104.43c0,1.7-.51.16,0,0Z"/><path class="cls-6" d="M114.7,51c.55-.1-1,1.84,0,0Z"/><path class="cls-5" d="M147.77,28.78c.11.4-1.11.36,0,0Z"/><path class="cls-6" d="M109.58,87.55c.11,0,.13,1.47,0,0Z"/><path class="cls-6" d="M110.8,33.47c.21,0,.27.15.23.47C110.94,34.49,110.49,33.48,110.8,33.47Z"/><path class="cls-5" d="M111.36,42.06c3.64-.39.15.93,0,0Z"/><path class="cls-6" d="M112.25,35.81c-.31,2.38-.85-.36,0,0Z"/><path class="cls-6" d="M113.37,91.3c0-.75.07-.34.1.18a.44.44,0,0,0-.07.21Q113.39,91.53,113.37,91.3Z"/><path class="cls-6" d="M113.49,91.87c0,.53,0,.86-.09-.16A.15.15,0,0,0,113.49,91.87Z"/><path class="cls-6" d="M116.37,9.47l0-.13c.2,0,.53.1,1,.21C117.39,9.72,116.77,9.59,116.37,9.47Z"/><path class="cls-6" d="M118.27,49.88c0,.12-1.21.75,0,0Z"/><path class="cls-6" d="M119.27,81.45c.61,2.79-1.47.07,0,0Z"/><path class="cls-5" d="M120.71,19.71c.08,0,.22,2.05,0,0Z"/><path class="cls-6" d="M122.94,60.82c-.19,1.73-3.94-1,0,0Z"/><path class="cls-5" d="M124.72,11.59c.26,1.14-.44,1.15,0,0Z"/><path class="cls-6" d="M125.5,106c.18,1.53-1.25.08,0,0Z"/><path class="cls-6" d="M126.17,58.63c.07,0,.62,2.56,0,0Z"/><path class="cls-6" d="M129.51,62.54c0-.09,1,.08,0,0Z"/><path class="cls-6" d="M130.4,32.06c.07,0,2.29,1.24,0,0Z"/><path class="cls-6" d="M129.62,33.94c-1.34,2-1-.4,0,0Z"/><path class="cls-5" d="M129.06,4.4c.15,1.24-1,.08,0,0Z"/><path class="cls-6" d="M130.62,23.46c0,1.81,0-.62,0,0Z"/><path class="cls-5" d="M147.1,47.54c-.32-1.32,0-.44,0,0Z"/><path class="cls-6" d="M134.74,17.68c3-.69.68.83,0,0Z"/><path class="cls-6" d="M136.3,4.4c.39-1.74.58,0,0,0Z"/><path class="cls-5" d="M138.19,118.18c-.61.12-.79-1.16,0,0Z"/><path class="cls-6" d="M138.64,16.12c1.17-.32.36.58,0,0Z"/><path class="cls-6" d="M139.86,71.14c.87-1.11,1.07-.52,0,0Z"/><path class="cls-5" d="M141.53,15.81c.47-.39,2,.56,0,0Z"/><path class="cls-5" d="M142.65,15a.63.63,0,0,1-.23.79A.55.55,0,0,1,142.65,15Z"/><path class="cls-6" d="M142.31,1.9c1.44-4.39,0,2.92,0,0Z"/><path class="cls-5" d="M144.65,48.47c1.31.75-.14,1.11,0,0Z"/><path class="cls-5" d="M147.43,99.9c.51.12.23,1.23,0,0Z"/><path class="cls-6" d="M146.43,58.63c-.14-1.52,1.1,0,0,0Z"/><path class="cls-6" d="M147.32,68.79c0,1.31-1-.15,0,0Z"/><path class="cls-6" d="M147,67.07c.07-1.58.54-.31,0,0Z"/><path class="cls-6" d="M178.38,103.18c.17.32-1.53,0,0,0Z"/><path class="cls-5" d="M149,109.74c-2.89-1.16.92,0,0,0Z"/><path class="cls-6" d="M148.88,91.61c.5,0-.06.68,0,0Z"/><path class="cls-5" d="M150.11,15.65c-1.86.47.73-1.59,0,0Z"/><path class="cls-6" d="M154.11,5c2,0-.05,0,0,0Z"/><path class="cls-5" d="M155.23,3.93c1.88-.86-.6,2.93,0,0Z"/><path class="cls-6" d="M155.34,34.09c-.44-.73,1.42-1,0,0Z"/><path class="cls-6" d="M155.89,51c.18-.8.43,2.25,0,0Z"/><path class="cls-6" d="M167.14,27.53c0-.1,1.34.14,0,0Z"/><path class="cls-6" d="M158.34,82.86c1.37-.45.09,1.72,0,0Z"/><path class="cls-6" d="M158.23,102.55c0-.5,1.21.22,0,0Z"/><path class="cls-5" d="M158.9,84.74c0,1.45-1.44,0,0,0Z"/><path class="cls-5" d="M162.35,25.18c-1.36-.25-1.34-1.66,0,0Z"/><path class="cls-5" d="M162.13,42.22c-.39,2.13.07-.75,0,0Z"/><path class="cls-5" d="M163.13,53c0,1-.44,0,0,0Z"/><path class="cls-6" d="M163.24,12.21c.18,1.16-.41,2.51,0,0Z"/><path class="cls-5" d="M163.35,104.74c1.36,0-.64.72,0,0Z"/><path class="cls-6" d="M164.36,92.86c-1-3.4,1.37,0,0,0Z"/><path class="cls-6" d="M164.36,104.12c.9-.17.23,1.58,0,0Z"/><path class="cls-6" d="M165.58,82.23c1.83-.69-2.34,2.73,0,0Z"/><path class="cls-6" d="M166.58,61c.36-1.23.58,2.08,0,0Z"/><path class="cls-5" d="M167.69,24.09c1.4.52-1.32,0,0,0Z"/><path class="cls-6" d="M167.92,59.1c-.1.27,0,.78-.23.94C167.62,59.67,167.44,59.05,167.92,59.1Z"/><path class="cls-6" d="M168.14,111c0-.56.1-.23,0,0Z"/><path class="cls-6" d="M169.37,23c1.91.56-.6,1.5,0,0Z"/><path class="cls-6" d="M171,10.18c.78,0,0,1.48,0,0Z"/><path class="cls-5" d="M172.26,2.68c.27,1.3-.2,1.77,0,0Z"/><path class="cls-5" d="M172,26c2.33.22-.82,2.17,0,0Z"/><path class="cls-6" d="M172.7,104.74c0,1.2-1.27,1.32,0,0Z"/><path class="cls-6" d="M172.59,22.37c-.19,1.58-.19.1,0,0Z"/><path class="cls-5" d="M172.82,107.24c0-2.41,1.27,1.32,0,0Z"/><path class="cls-6" d="M174.82,29.09c-.23-1.59.9,0,0,0Z"/><path class="cls-5" d="M176.71,90.83c1.24.36-.93.09,0,0Z"/><path class="cls-5" d="M178.83,117.71c.77,0-.21,1.06,0,0Z"/><path class="cls-5" d="M2.82,46.75c.15-.72.07,1.72,0,0Z"/><path class="cls-5" d="M10.94,67.23c1.18.25-2,.73,0,0Z"/><path class="cls-6" d="M15.84,89c-2.38,0,2.42-.13,0,0Z"/><path class="cls-6" d="M34.54,6.11c0,1.39-1.42,0,0,0Z"/><path class="cls-6" d="M57.26,49.72c-.93.19,0-.89,0,0Z"/><path class="cls-5" d="M72.17,84.89v-.47C72.67,84.26,72.54,85.48,72.17,84.89Z"/><path class="cls-5" d="M73.51,5.65c-.42,0,.26-1.75,0,0Z"/><path class="cls-5" d="M76.07,64.26c-.21-.07-.48-.06-.44-.47C75.93,63.34,76,64,76.07,64.26Z"/><path class="cls-6" d="M76.18,6.9c.27,0-1.2,3.41,0,0Z"/><path class="cls-6" d="M79.41,33.47c0,.89-.15,0,0,0Z"/><path class="cls-5" d="M81.64,15c-.11.68-.2.79,0,0Z"/><path class="cls-6" d="M85.42,33.15c.78-.28,3.13-.73,0,0Z"/><path class="cls-6" d="M85.76,118.49c.27-1.4.71-1.65,0,0Z"/><path class="cls-5" d="M86.65,53.47c.85,0,0,.93,0,0Z"/><path class="cls-6" d="M89.65,29.87c-1.3-.59,0-.22,0,0Z"/><path class="cls-6" d="M91.77,113.81c1.13-.47,0,0,0,0Z"/><path class="cls-5" d="M97.33,26.28c.49-.11,0,.35,0,0Z"/><path class="cls-5" d="M99.56,88.33c0,1.87-.8-.43,0,0Z"/><path class="cls-6" d="M103.68,51.13c1.72.12-1.43,0,0,0Z"/><path class="cls-6" d="M103.9,65.82c0,.53-.26,2.16,0,0Z"/><path class="cls-6" d="M106.46,27.22c0,.54-.8.18,0,0Z"/><path class="cls-6" d="M111.25,99.9c-.89-2,0-.75,0,0Z"/><path class="cls-6" d="M111.7,21Z"/><path class="cls-6" d="M118,44.57c.79.21,0,.29,0,0Z"/><path class="cls-6" d="M121.71,39.56c.34,1.31-.24.08,0,0Z"/><path class="cls-5" d="M122.16,7.36c0-.79.59-.54,0,0Z"/><path class="cls-6" d="M126.39,84.74c1.06-.25-2.27,3.12,0,0Z"/><path class="cls-6" d="M127.06,53.94c-.31,0,.1-.94,0,0Z"/><path class="cls-6" d="M127.84,59.1c2,.63-2-.43,0,0Z"/><path class="cls-6" d="M134.85,70.35c1.7-1.74-.55,1.51,0,0Z"/><path class="cls-6" d="M142.76,16.9c.55,0,0,2.16,0,0Z"/><path class="cls-6" d="M143.2,74.11c.92-.32,0,0,0,0Z"/><path class="cls-6" d="M145.54,117.71c-.69-1.48,2.07-.36,0,0Z"/><path class="cls-6" d="M149.44,42.85c-.17,0-.36-1.9,0,0Z"/><path class="cls-6" d="M150.55,24.25c0,.51-1.86.16,0,0Z"/><path class="cls-6" d="M152.11,2.05c0-.41.15-.51.45-.47C152.67,2.11,152.4,2.09,152.11,2.05Z"/><path class="cls-6" d="M154,63.79c1-1-.75,1.55,0,0Z"/><path class="cls-6" d="M154.78,86.14c.13,1.45-1.2,0,0,0Z"/><path class="cls-6" d="M154.56,27.53c-.06-.06.23-1.34,0,0Z"/><path class="cls-6" d="M156.23,50.35c.67-.31,0,1.26,0,0Z"/><path class="cls-6" d="M156.9,38.78c.52,0,.95.2,0,0Z"/><path class="cls-6" d="M157.68,9.08c.15.05,0,1.2,0,0Z"/><path class="cls-5" d="M159.68,16.9c0-1.2,2.25.28,0,0Z"/><path class="cls-6" d="M163.35.33c1.28,0-.17.22,0,0Z"/><path class="cls-6" d="M163.91,108c.43-.58.52-.25,0,0Z"/><path class="cls-6" d="M168.47,59.57c.21.13-.16,0,0,0Z"/><path class="cls-6" d="M172.48,54.88c1.49-1.49-.36,1.5,0,0Z"/><path class="cls-5" d="M173.26,69.1c0-.35,0-.58.22-.62S173.63,69.4,173.26,69.1Z"/><path class="cls-6" d="M173.6,105.21c-.62.24-.5-.63-.12-.63A1.19,1.19,0,0,0,173.6,105.21Z"/><path class="cls-5" d="M174,29.87c.14-1.42.41-.07,0,0Z"/><path class="cls-5" d="M177.71,8.46c0-.89,1.12,0,0,0Z"/><path class="cls-6" d="M179.72,17.84c.05-1.41,1,.22,0,0Z"/><path class="cls-6" d="M143.76,102.71c3,.2-2.62,0,0,0Z"/><path class="cls-6" d="M133.21,130.22c1.37-.05.3,1.45,0,0Z"/><path class="cls-6" d="M160.13,130.69c.47-2.48,1.15.75,0,0Z"/><path class="cls-5" d="M167.8,129.75c-2.69-.05,0-.28,0,0Z"/><path class="cls-5" d="M157.47,127.87c-.58-1.27,3.56.52,0,0Z"/><path class="cls-5" d="M131.17,127.28c0-.06,1.67.19,0,0Z"/><path class="cls-5" d="M178.91,124.93c-.65,1.95-.19-.09,0,0Z"/><path class="cls-6" d="M118.5,124.58c1.81,0-2.08.18,0,0Z"/><path class="cls-5" d="M179.22,123.29c2.38,2.09-1.14.27,0,0Z"/><path class="cls-6" d="M138.06,124.23c-1.33-.08-.44-.46,0,0Z"/><path class="cls-5" d="M144.64,124c1,.08.07,0,0,0Z"/><path class="cls-6" d="M176.72,123.06s1.79.28,0,0Z"/><path class="cls-6" d="M145,120.59c1,0,0,1.31,0,0Z"/><path class="cls-6" d="M167.33,117c0,1.1-2.33-.44,0,0Z"/><path class="cls-5" d="M122.66,115.74c-.36.39-.12.87.69.86a.51.51,0,0,0-.11-.43c.39.37.49.77-.51.66C121.67,115.51,122.11,115.44,122.66,115.74Z"/><path class="cls-5" d="M122.73,115.66c.12.2.37.32.51.51a2.43,2.43,0,0,0-.58-.43Z"/><path class="cls-5" d="M114.43,115.66c-.93-3.15,1.38-.39,0,0Z"/><path class="cls-6" d="M156.06,114.84c-.74.13-.72-.32-.78-.71C155.84,114.14,156.11,114.37,156.06,114.84Z"/><path class="cls-6" d="M145.26,114c.82,0,0,1.18,0,0Z"/><path class="cls-5" d="M170,111.55c.37-1,.52,1.41,0,0Z"/><path class="cls-6" d="M110.83,45.68c1.14-.83.65,0,0,0Z"/><path class="cls-6" d="M156.06,103.57c-2.68.34.32-1.2,0,0Z"/><path class="cls-6" d="M152.62,36.05c-2,.15.37-1,0,0Z"/><path class="cls-5" d="M140.25,15.5c-.29-.79,1.45-.77,0,0Z"/><path class="cls-6" d="M125.07,109.67c-.94-.22,1.72-.22,0,0Z"/><path class="cls-6" d="M171.4,109.55v.24C171.22,110.57,170.12,109.28,171.4,109.55Z"/><path class="cls-6" d="M124,109.55c-.1.7-.17.29,0,0Z"/><path class="cls-6" d="M152,108.5c1.53-.19,0,.07,0,0Z"/><path class="cls-6" d="M137,99.1c-1.54,0,2.73-1.72,0,0Z"/><path class="cls-5" d="M117.56,78.56c-.63-.46,2.36,0,0,0Z"/><path class="cls-6" d="M167.17,105.8c2,1.4-2.87,0,0,0Z"/><path class="cls-6" d="M161.85,105.8c-1.39.13.26-1.34,0,0Z"/><path class="cls-5" d="M146.67,102.39c0-1.87,2.12,1.45,0,0Z"/><path class="cls-5" d="M137,102c-.92-2.54.81.1,0,0Z"/><path class="cls-5" d="M160.91,101.1s2.16-.34,0,0Z"/><path class="cls-6" d="M155.12,101.45c0-.91.91,0,0,0Z"/><path class="cls-6" d="M170,101.1c-.06.06.09-.31,0,0Z"/><path class="cls-5" d="M159.51,100.63c-1.27-.47,3.6-3.1,0,0Z"/><path class="cls-6" d="M113.18,99.57c1.22-.2-1.48,1.76,0,0Z"/><path class="cls-5" d="M166.24,98.75c0-1.77.18,0,0,0Z"/><path class="cls-6" d="M173.28,98.52Z"/><path class="cls-6" d="M157.16,97.58c1.76-.14-.09.78,0,0Z"/><path class="cls-6" d="M135.72,96.76c1.14,0-.16,1,0,0Z"/><path class="cls-6" d="M159.51,96.17c.09.53-.54-.47,0,0Z"/><path class="cls-6" d="M115.53,95.23c2.26,0-1.49,1.75,0,0Z"/><path class="cls-6" d="M115.53,94.29c.89,1.08-1.5,0,0,0Z"/><path class="cls-6" d="M176.09,30.3c-.51,0,.41-1.09,0,0Z"/><path class="cls-5" d="M170.31,28.89c-.44,0-.57-.43,0,0Z"/><path class="cls-6" d="M167.8,92.06c-.07.27-2.22.27,0,0Z"/><path class="cls-5" d="M172.65,89.36c.62-1.59.69-.14,0,0Z"/><path class="cls-6" d="M172,86.42c-.32-1.33,2-.4,0,0Z"/><path class="cls-6" d="M119.91,86.42c.48-1.55,4-.12,0,0Z"/><path class="cls-6" d="M134.15,78.44c-.31,1.38-1.75-1.62,0,0Z"/><path class="cls-5" d="M110.52,74.1c1.68,0,.46,1.39,0,0Z"/><path class="cls-5" d="M139.16,68.81c.29,0-.17,0,0,0Z"/><path class="cls-6" d="M162.48,71.86c1-.22,0,1.23,0,0Z"/><path class="cls-6" d="M149.33,66.93c1.39.09-2.15-.07,0,0Z"/><path class="cls-6" d="M130.08,66.11c-1.19,0-.29-.17,0,0Z"/><path class="cls-6" d="M120.85,65.64c0-3.27,1.58,4.54,0,0Z"/><path class="cls-5" d="M120.06,64.58c.2-.5.11-.07,0,0Z"/><path class="cls-5" d="M133.21,53.31c-.5-.14-1.15-.83,0,0Z"/><path class="cls-6" d="M125.07,63.17c.56-.2.08.79,0,0Z"/><path class="cls-5" d="M167.17,57.42c-1,.12-.87-.45-.15-.47S167.46,57.35,167.17,57.42Z"/><path class="cls-5" d="M168.42,54.6c.76,0,1.48,1.23,0,0Z"/><path class="cls-6" d="M113.49,54.48c0,1.9-1.82-1,0,0Z"/><path class="cls-6" d="M124.45,53.66c0-.18,2,1.41,0,0Z"/><path class="cls-6" d="M151.37,51.67c-.23-2.07.83-.07,0,0Z"/><path class="cls-6" d="M113.18,50.14c1.45,0-2.59.28,0,0Z"/><path class="cls-6" d="M124.13,46.62c0-.19,1.32.06,0,0Z"/><path class="cls-6" d="M118.19,46.26c.55-.12-.56-.57,0-.7C118.52,45.58,118.69,46.67,118.19,46.26Z"/><path class="cls-6" d="M114.43,44.86c-.57,0-.12-1.25,0,0Z"/><path class="cls-6" d="M166.55,40.86c.41-1.83,0,2.25,0,0Z"/><path class="cls-5" d="M134.62,31.82c-.11-.08,1.79.06,0,0Z"/><path class="cls-6" d="M157,33.7c.05-.76,1.61-.15,0,0Z"/><path class="cls-6" d="M130.08,30.77c-.9,0-1.75-1.22,0,0Z"/><path class="cls-6" d="M142.13,24c.61-.14,1.61,1.67,0,0Z"/><path class="cls-6" d="M144.17,29.24c.47,0,.32.38.47.59C144,30,144.17,29.55,144.17,29.24Z"/><path class="cls-6" d="M133.84,28.3c2,.56-2.57-.51,0,0Z"/><path class="cls-6" d="M176.09,19.61c-.77-1.52,1.88,1.18,0,0Z"/><path class="cls-5" d="M128.83,9.75c0,1-1.19,0,0,0Z"/><path class="cls-6" d="M143.07,13.39c.37-1.37.49,0,0,0Z"/><path class="cls-5" d="M170.31,12.57c.7-.5.63,1.44,0,0Z"/><path class="cls-6" d="M163.89,12.33c-1.33,1.16.22-1,0,0Z"/><path class="cls-6" d="M158.72,128.58c-1.44-.4-.34-.26,0,0Z"/><path class="cls-5" d="M147.92,123.29c1.67.08-1.69.19,0,0Z"/><path class="cls-6" d="M157.94,122.47c-.9-.83.39,0,0,0Z"/><path class="cls-6" d="M164.36,116.83c0,.24,0,.37-.32.36C163.52,117.11,163.73,116.68,164.36,116.83Z"/><path class="cls-6" d="M124.29,110.73c-.18,1-.09,0,0,0Z"/><path class="cls-6" d="M163.57,108.85c-2,0,0-1,0,0Z"/><path class="cls-6" d="M143.23,104.15c2.05.38-.61,0,0,0Z"/><path class="cls-5" d="M159.66,97.34c.86,0,0,1.06,0,0Z"/><path class="cls-6" d="M124.13,93c2.11.34.79.8,0,0Z"/><path class="cls-6" d="M117.87,87.24c-.09-.44,1.12-.19,0,0Z"/><path class="cls-6" d="M133.37,70.81c.4.24.23.8,0,0Z"/><path class="cls-5" d="M147.3,70.92c0,.94-2.61,0,0,0Z"/><path class="cls-6" d="M146.67,70.1a.48.48,0,0,1,.16.35C146.15,70.69,145.9,70,146.67,70.1Z"/><path class="cls-6" d="M156.37,67.64c-1.85-.19,2.13-2.39,0,0Z"/><path class="cls-6" d="M161.38,64c1.69-.12-.08.3,0,0Z"/><path class="cls-5" d="M161.07,62.82c.08.67,0,.17,0,0Z"/><path class="cls-6" d="M128.36,62.35c-.36-1.58,1.26,2.58,0,0Z"/><path class="cls-6" d="M128.52,60.94c0-.21,0,.33,0,0Z"/><path class="cls-6" d="M166.08,60.71c.79,2.08,0,0,0,0Z"/><path class="cls-6" d="M157.63,57.42c-.54.09-.75-.07-.63-.47C157.48,56.91,157.27,57.38,157.63,57.42Z"/><path class="cls-6" d="M123.82,55.78c0-.53.64-1,0,0Z"/><path class="cls-5" d="M136.5,46.38c-.36,1.59-.11,0,0,0Z"/><path class="cls-6" d="M156.53,45.68c1.68,0-.46,1.91,0,0Z"/><path class="cls-6" d="M175.31,44.62c.62-.15.47.28.47.59C175.64,45,175.2,45,175.31,44.62Z"/><path class="cls-6" d="M141.66,42.15h-.78C140.64,41.79,141.9,41.79,141.66,42.15Z"/><path class="cls-6" d="M128.05,39.92c1.21,0-.31,1.77,0,0Z"/><path class="cls-6" d="M129.3,40.28c0-1.29,1.86-.19,0,0Z"/><path class="cls-6" d="M155.28,29.48c1.09.81-.4,1,0,0Z"/><path class="cls-6" d="M175,26.07c.51,0,0,2.24,0,0Z"/><path class="cls-6" d="M145.26,21.73c0,2.08-.29,0,0,0Z"/><path class="cls-5" d="M166.39,15.74c.21-1,.24,0,0,0Z"/><path class="cls-5" d="M116.47,10.45c-2.26.49-.62-2.67-.13-1.11l0,.13A4,4,0,0,1,116.47,10.45Z"/><path class="cls-6" d="M75.1,105.56Z"/><path class="cls-6" d="M72.6,93.35c.63-.16-.61.46,0,0Z"/><path class="cls-6" d="M31.59,63.29c-.07-1.39,1.59,0,0,0Z"/><path class="cls-6" d="M3.27,30.88c0-1.51.5.05,0,0Z"/><path class="cls-6" d="M18.6,49.91c-2.14,0,0-.88,0,0Z"/><path class="cls-6" d="M28,67.28c-.5,0,0-1.36,0,0Z"/><path class="cls-6" d="M81.52,61.65c.08-.22.73-.56,0,0Z"/><path class="cls-5" d="M82.78,70.1c0,.41-4,.07,0,0Z"/><path class="cls-5" d="M67.28,59.3c-.15.14,0-1.36,0,0Z"/><path class="cls-6" d="M96.55,95.7c.42,0,1.06,2.3,0,0Z"/><path class="cls-6" d="M100.46,99.92c-.46-1.42.46,0,0,0Z"/><path class="cls-6" d="M102.81,103.92c.3-.16,0,1.6,0,0Z"/><path class="cls-5" d="M81.05,91.47c-2.24,0,1.08-2.13,0,0Z"/><path class="cls-6" d="M86.06,96.76c-.37-.57,1.92-.33,0,0Z"/><path class="cls-6" d="M4.52,129.51c0-2.11,0,0,0,0Z"/><path class="cls-5" d="M3.42,128.34c-.84-2,2.94.61,0,0Z"/><path class="cls-6" d="M33.63,128.22c-.73.46-1-1.5,0,0Z"/><path class="cls-6" d="M50.53,127.64c-.79-.18,2.25-.45,0,0Z"/><path class="cls-5" d="M7,91.82c-1.21.12.33-1.59,0,0Z"/><path class="cls-6" d="M27.06,115.78c-.1,0,.13-1.4,0,0Z"/><path class="cls-6" d="M82.64,124.79a.8.8,0,0,0,0,.24l-.22,0c-.39-1.24,1.13-.44.53-.11A.64.64,0,0,0,82.64,124.79Z"/><path class="cls-5" d="M82.64,124.79a.64.64,0,0,1,.35.15,1.17,1.17,0,0,1-.31.09A.8.8,0,0,1,82.64,124.79Z"/><path class="cls-6" d="M82.64,124.79a.64.64,0,0,1,.35.15,1.17,1.17,0,0,1-.31.09A.8.8,0,0,1,82.64,124.79Z"/><path class="cls-6" d="M102.18,125.17c-.5,0,.22-1.3,0,0Z"/><path class="cls-5" d="M84.34,124.47c1.46,0,0,1.51,0,0Z"/><path class="cls-5" d="M24.71,120.83c-.26,1.46-1.65,1.39,0,0Z"/><path class="cls-5" d="M41.77,121.06c2.15.39-.78-.08,0,0Z"/><path class="cls-5" d="M52.57,120c1,0,0,.48,0,0Z"/><path class="cls-6" d="M11.72,119.89c1.19-.19,2.51.43,0,0Z"/><path class="cls-5" d="M104.37,119.77c0-1.4.69.65,0,0Z"/><path class="cls-6" d="M92.48,118.71c-3.39,1.05,0-1.44,0,0Z"/><path class="cls-6" d="M103.75,118.71c-.17-.95,1.58-.24,0,0Z"/><path class="cls-6" d="M81.84,117.42c-.71-2,2.71,2.46,0,0Z"/><path class="cls-6" d="M60.55,116.36c-1.3-.4,2.12-.61,0,0Z"/><path class="cls-5" d="M23.61,115.19c.52-1.42,0,1.35,0,0Z"/><path class="cls-6" d="M58.67,115c.27.11.78,0,.94.24C59.24,115.27,58.62,115.46,58.67,115Z"/><path class="cls-6" d="M110.63,114.72c-.47,0-.33-.15,0,0Z"/><path class="cls-6" d="M22.52,113.43c.56-2,1.49.62,0,0Z"/><path class="cls-6" d="M9.68,111.67c0-.81,1.48,0,0,0Z"/><path class="cls-5" d="M2.17,110.38c1.24-.27,1.83.22,0,0Z"/><path class="cls-5" d="M25.49,110.61c.22-2.43,2.09.83,0,0Z"/><path class="cls-6" d="M104.37,109.91c1.18,0,1.34,1.37,0,0Z"/><path class="cls-6" d="M21.89,110c1.56.2.12.24,0,0Z"/><path class="cls-5" d="M106.88,109.79c-2.45,0,1.33-1.38,0,0Z"/><path class="cls-6" d="M28.62,107.68c-1.59.23,0-1,0,0Z"/><path class="cls-5" d="M90.44,105.68c.32-1.15.08.82,0,0Z"/><path class="cls-5" d="M117.36,103.45c0-.82,1.06.22,0,0Z"/><path class="cls-5" d="M63.05,101.22c.84.17-.2.07,0,0Z"/><path class="cls-6" d="M4.67,99.81c1.63,0-.16.84,0,0Z"/><path class="cls-5" d="M110.16,98.75c1.12.06.15.2,0,0Z"/><path class="cls-6" d="M110.94,98.75c-.47,0-.81-3,0,0Z"/><path class="cls-5" d="M1.08,99c-.18-1.09.72-.12,0,0Z"/><path class="cls-6" d="M98,98.63c-.88.21,0-1.37,0,0Z"/><path class="cls-5" d="M10.62,93.94s.49,1.59,0,0Z"/><path class="cls-6" d="M96.55,94.64s2.29,2.47,0,0Z"/><path class="cls-5" d="M11.72,93.35c-1.09-.09,0-.27,0,0Z"/><path class="cls-6" d="M57.73,91.59c-1.69.16-.22-.87,0,0Z"/><path class="cls-5" d="M95.14,66.58c.73-.08-.61,2,0,0Z"/><path class="cls-5" d="M50.06,92.29c0-1,.94.09,0,0Z"/><path class="cls-5" d="M113.49,91.87a.15.15,0,0,1-.09-.16v0a.44.44,0,0,1,.07-.21.7.7,0,0,1,.92-.24C113.92,91.81,113.63,91.94,113.49,91.87Z"/><path class="cls-5" d="M79.49,90.88c0,.06-.23.61,0,0Z"/><path class="cls-6" d="M9.06,90.65c2.74.37,0,.21,0,0Z"/><path class="cls-5" d="M27.52,83.13c0-.55.57-.19,0,0Z"/><path class="cls-6" d="M55.23,89.24c1.81,0-.06.71,0,0Z"/><path class="cls-5" d="M34.57,89.12c-.41-1.12,0,0,0,0Z"/><path class="cls-6" d="M98.11,88.89c-2.59-.39,1.65.09,0,0Z"/><path class="cls-5" d="M33,88.07c-1.27,0,.41-.26,0,0Z"/><path class="cls-5" d="M83.09,86.07c.33.24.07.44-.47.35C82.52,86.12,82.68,86,83.09,86.07Z"/><path class="cls-6" d="M84.34,84.42c.74.63,1,.51.78-.35C85.78,84.22,86.26,88.21,84.34,84.42Z"/><path class="cls-6" d="M59.77,82.78c.09-1.18,0,.74,0,0Z"/><path class="cls-5" d="M100,83.13c-1.44-.18.17-1.78,0,0Z"/><path class="cls-6" d="M82,80.79c.71.07-1.17,0,0,0Z"/><path class="cls-6" d="M102,63.88c.15,0,1.3.44,0,0Z"/><path class="cls-6" d="M105.62,80.32c-.25,0-.26-2.27,0,0Z"/><path class="cls-6" d="M80.58,49.08c-.5-.57-1.85-2.22,0,0Z"/><path class="cls-5" d="M82.62,53.54c-.68-.13.38-.66,0,0Z"/><path class="cls-5" d="M87.31,57.65c-1.46-.14-.47-2,0,0Z"/><path class="cls-5" d="M23.46,75.39c2.37,0-.94.1,0,0Z"/><path class="cls-6" d="M110.79,75.39c-2-.4,2.22,0,0,0Z"/><path class="cls-5" d="M79.64,72.92c-1.84,0-.17-1.67,0,0Z"/><path class="cls-6" d="M43.33,70.45s.28,0,0,0Z"/><path class="cls-6" d="M42.86,69.63c-.54.45-.68.55,0,0Z"/><path class="cls-6" d="M8.74,67.05c1.23-.24,0,1,0,0Z"/><path class="cls-6" d="M73.23,64c.91-.07,0,.84,0,0Z"/><path class="cls-6" d="M33.47,50.26c.85-.15.56.49,0,0Z"/><path class="cls-5" d="M68.22,63.88c-1.51,0,.86-1.28,0,0Z"/><path class="cls-6" d="M66.65,61.76c-.94.08-2.39-.19,0,0Z"/><path class="cls-5" d="M103.12,62.71c-.21,0-.3-2.73,0,0Z"/><path class="cls-6" d="M87.63,60.47c.86,0,.56.81,0,0Z"/><path class="cls-6" d="M4.21,60.36c.14.31-4.52-2.09,0,0Z"/><path class="cls-5" d="M86.84,47.91c-.07,0,.17-.84,0,0Z"/><path class="cls-6" d="M27.37,57.89c0,1.5-2.31.47,0,0Z"/><path class="cls-6" d="M95,58.12c0,1.54-.79,0,0,0Z"/><path class="cls-6" d="M24.24,58c-2.22-.06.51-1.08,0,0Z"/><path class="cls-6" d="M101.24,58c-.1-.32-.65-.3-.62-.71C100.91,57.4,101.67,57.75,101.24,58Z"/><path class="cls-5" d="M98.58,57.18c0,1.1,0-.82,0,0Z"/><path class="cls-6" d="M7,56.36c1,0,1.44,1.26,0,0Z"/><path class="cls-5" d="M94,38.52c-1.75,0-.7-1.45,0,0Z"/><path class="cls-6" d="M48.5,54.48c.74.62-1.45.34,0,0Z"/><path class="cls-5" d="M17.66,54.37c-1,0-.28-.53,0,0Z"/><path class="cls-6" d="M63.37,53.43c.56-1.44.91.56,0,0Z"/><path class="cls-6" d="M39.73,50.85a.86.86,0,0,1,.47.11C40.4,51.54,39.42,51.35,39.73,50.85Z"/><path class="cls-6" d="M38.64,51.08c-.67-.34,0-1.7,0,0Z"/><path class="cls-5" d="M53.82,50.37c.41,0,1.33.05,0,0Z"/><path class="cls-6" d="M80,50.14c0-.44,2.82-.56,0,0Z"/><path class="cls-6" d="M70.57,49.32c0-.51.77-.17.46.23S70.78,49.3,70.57,49.32Z"/><path class="cls-6" d="M72.6,48.26c0,2-1.78-2.41,0,0Z"/><path class="cls-6" d="M45.68,47.2c.84-1.31,0,.61,0,0Z"/><path class="cls-6" d="M76.36,44.15c1.64,0,.08,1,0,0Z"/><path class="cls-6" d="M55.85,43.56c-.23.75-1.85.42,0,0Z"/><path class="cls-6" d="M52.1,42.51c.3,0,.76.55,0,0Z"/><path class="cls-6" d="M65.25,42.15c0-1.86,1.37.06,0,0Z"/><path class="cls-6" d="M30,40.75c1.12.14,1,.72,0,0Z"/><path class="cls-5" d="M39.11,38.4c0-1.2,2.12-.09,0,0Z"/><path class="cls-6" d="M39.11,38.4c-1.28-.12,0-1.92,0,0Z"/><path class="cls-6" d="M91.23,35c-1-.82.22-.76,0,0Z"/><path class="cls-6" d="M4.52,33.7c.3.82-2.15-1,0,0Z"/><path class="cls-5" d="M40.83,31.59a4.58,4.58,0,0,0,.63.7C41,33,40.2,31.62,40.83,31.59Z"/><path class="cls-6" d="M33.32,28.89c0-1.38,1.32.87,0,0Z"/><path class="cls-6" d="M32.53,27.83c-1.7-.73,0-2.21,0,0Z"/><path class="cls-6" d="M93.73,26.77c-2.06-.22.43-.88,0,0Z"/><path class="cls-6" d="M20.48,25.6c-1.11.08,0-.35,0,0Z"/><path class="cls-6" d="M53,25.13c-2-.09,2.38-1.07,0,0Z"/><path class="cls-6" d="M19.7,23.37c-3-.1.52-2.21,0,0Z"/><path class="cls-6" d="M5.77,20.55c-1.23-.2-.25-1.23,0,0Z"/><path class="cls-6" d="M1.08,131.16c.52-.12.51.16.46.47C1.13,131.66,1,131.46,1.08,131.16Z"/><path class="cls-6" d="M63.37,129.63c-1.08-1,1.52.79,0,0Z"/><path class="cls-6" d="M85.75,128.81c1.44-.14,0,1.27,0,0Z"/><path class="cls-6" d="M27.06,129s-1.36-.24,0,0Z"/><path class="cls-6" d="M49.91,127.28c-.33-.75,1.27,0,0,0Z"/><path class="cls-6" d="M38.33,126.58c0-.57.18-1,0,0Z"/><path class="cls-6" d="M8.59,125.76c.05-.18,1.19,0,0,0Z"/><path class="cls-5" d="M16.41,123.64c-1.2,0,.28-2.37,0,0Z"/><path class="cls-6" d="M107.66,119.18c-.52-.39-.28-.58,0,0Z"/><path class="cls-6" d="M59.14,114.37c.07-.12,0,.09,0,0Z"/><path class="cls-6" d="M54.45,110.14c-1.53-1.6,1.51.38,0,0Z"/><path class="cls-5" d="M68.06,109.08c.06-.25.92-.15.63.24C68.33,109.35,68.1,109.29,68.06,109.08Z"/><path class="cls-6" d="M104.21,109.08a1.11,1.11,0,0,0,.63-.11C105.08,109.62,104.21,109.49,104.21,109.08Z"/><path class="cls-5" d="M29.41,108.5c-1.44-.15-.08-.43,0,0Z"/><path class="cls-5" d="M8,104.62c-.88,0,0-1.18,0,0Z"/><path class="cls-6" d="M17.35,102.51c-1.4-.06.23-1.12,0,0Z"/><path class="cls-6" d="M68.84,101.1c-.61-.1-.32-1.09,0,0Z"/><path class="cls-6" d="M49,100.63c0-1.58.76.93,0,0Z"/><path class="cls-6" d="M103.28,98.52c1.71-.08-1.28,2.88,0,0Z"/><path class="cls-5" d="M14.22,97.34c.12.85-1.35,0,0,0Z"/><path class="cls-5" d="M99.52,92.41c.07.49-.73.43-.47-.12C99.27,92.28,99.49,92.27,99.52,92.41Z"/><path class="cls-6" d="M57,84c.58,0,.65.29.78.58C57.27,84.5,57.22,84.14,57,84Z"/><path class="cls-6" d="M81.36,83c.61.06.77-.21,1.42-.12C82.51,83,81.65,83.3,81.36,83Z"/><path class="cls-6" d="M107.66,82.9c-2-.86,1.15,0,0,0Z"/><path class="cls-6" d="M28.47,80.55c-.65-.07,2.14,0,0,0Z"/><path class="cls-6" d="M23.77,80.32c-2.05-.27.17,0,0,0Z"/><path class="cls-6" d="M13.28,74.91c-1.87-.24,2.34,0,0,0Z"/><path class="cls-6" d="M74.32,65.17c2.28.39,0,.65,0,0Z"/><path class="cls-6" d="M68.06,64.46c.22-1.32.33,0,0,0Z"/><path class="cls-5" d="M51.31,54.13c0,.95-1,0,0,0Z"/><path class="cls-6" d="M91.85,54.37c.22-.25,1.69-.47,0,0Z"/><path class="cls-5" d="M8.43,53.08c-.49-.07,3.24-.8,0,0Z"/><path class="cls-6" d="M13.76,53.19c0-1.49.14-.89,0,0Z"/><path class="cls-6" d="M82.93,47.32c-1.89,0-.18-2.23,0,0Z"/><path class="cls-6" d="M37.07,46.73c-.85-.11.15-2.09,0,0Z"/><path class="cls-6" d="M66.34,42.74c-.9-.19.41-.48.63-.59C67,42.54,66.78,42.72,66.34,42.74Z"/><path class="cls-6" d="M28.47,33.11c-.07-1.07.17,0,0,0Z"/><path class="cls-6" d="M34.73,19.85c-.06-.36.51-.25.78-.36C35.53,19.82,35.12,19.83,34.73,19.85Z"/><path class="cls-6" d="M87.31,71.63c-.51-1.29,1.1,0,0,0Z"/></g></g></g></g></svg>